<?xml version="1.0" standalone="no"?>
<!DOCTYPE svg PUBLIC "-//W3C//DTD SVG 20010904//EN"
 "http://www.w3.org/TR/2001/REC-SVG-20010904/DTD/svg10.dtd">
<svg version="1.0" xmlns="http://www.w3.org/2000/svg"
 width="600.000000pt" height="508.000000pt" viewBox="0 0 600.000000 508.000000"
 preserveAspectRatio="xMidYMid meet">

<g transform="translate(0.000000,508.000000) scale(0.100000,-0.100000)"
fill="#000000" stroke="none">
<path d="M4395 4570 c-3 -6 1 -7 9 -4 18 7 21 14 7 14 -6 0 -13 -4 -16 -10z"/>
<path d="M2036 4546 c-16 -18 -28 -22 -54 -18 -23 3 -39 -1 -52 -13 -28 -25
-25 -42 10 -48 20 -4 38 -20 56 -47 25 -37 30 -40 74 -40 44 0 50 3 69 36 12
20 35 41 51 47 59 22 21 75 -46 64 -26 -4 -34 -2 -39 13 -9 29 -44 32 -69 6z"/>
<path d="M3925 4503 c-4 -26 -11 -53 -17 -60 -7 -8 -4 -22 9 -43 l18 -31 -42
-40 c-24 -22 -43 -42 -43 -44 0 -3 42 -5 93 -5 l92 1 -42 40 c-43 39 -52 62
-33 74 12 7 14 55 2 55 -4 0 -8 18 -8 41 -2 62 -20 70 -29 12z"/>
<path d="M4440 4536 c0 -8 -8 -17 -17 -19 -17 -4 -17 -5 0 -6 10 0 27 4 38 9
16 9 19 7 19 -9 0 -15 -9 -22 -32 -26 -45 -9 -53 -6 -51 13 1 10 0 11 -3 4 -3
-6 -10 -10 -15 -6 -14 8 -11 -3 7 -20 10 -11 24 -14 41 -10 18 5 24 3 19 -5
-5 -7 0 -11 13 -11 11 0 23 5 27 12 4 6 3 8 -4 4 -6 -3 -13 -2 -17 4 -5 9 6
14 26 12 8 -1 3 43 -6 57 -9 16 -45 13 -45 -3z"/>
<path d="M3774 4505 c-4 -10 -13 -13 -25 -10 -30 10 -59 -16 -59 -51 0 -19 6
-34 15 -38 9 -3 12 -12 9 -21 -11 -28 16 -65 48 -65 16 0 31 7 34 15 4 9 14
13 28 9 46 -11 81 51 49 88 -8 9 -12 22 -8 28 4 6 -1 22 -9 35 -19 29 -73 35
-82 10z"/>
<path d="M4593 4494 c-50 -25 -66 -57 -61 -125 2 -33 2 -59 -1 -59 -3 0 -19
16 -34 35 -19 23 -36 35 -53 35 -20 0 -24 4 -19 19 7 25 -11 37 -31 20 -11 -9
-17 -10 -23 -1 -10 16 -63 -73 -59 -99 3 -21 4 -20 18 7 22 44 57 63 45 25 -7
-22 22 -38 39 -21 17 17 28 11 21 -10 -4 -12 -2 -20 5 -20 16 0 70 -39 70 -51
0 -5 -24 -9 -53 -9 -107 0 -177 -62 -177 -158 0 -52 17 -92 31 -71 5 8 9 27 9
43 0 20 4 27 14 23 10 -4 16 8 21 49 6 54 25 67 25 18 l0 -26 31 26 c17 14 39
26 49 26 18 0 18 -2 4 -35 -22 -54 -18 -105 14 -156 29 -44 85 -99 103 -99 17
0 -19 55 -55 83 -44 34 -47 53 -6 32 28 -14 30 -14 30 2 0 10 -14 30 -32 46
-31 26 -32 27 -8 22 23 -6 27 -2 37 38 7 24 21 54 31 67 18 22 22 23 47 12 25
-11 31 -10 53 10 l24 23 -7 -32 c-7 -34 10 -48 21 -18 10 24 25 17 19 -8 -9
-32 18 -55 41 -36 15 12 16 11 9 -11 l-8 -25 23 20 23 20 -5 -20 c-3 -11 -9
-29 -13 -40 -7 -16 -6 -18 6 -7 20 18 31 15 19 -7 -6 -12 -6 -29 -2 -42 8 -20
10 -17 21 25 23 92 -36 166 -154 192 -40 9 -46 13 -30 19 11 4 35 24 54 44 21
23 31 29 26 16 -19 -52 -18 -55 8 -55 14 0 29 5 32 10 11 18 28 11 22 -9 -3
-12 3 -27 14 -37 18 -16 19 -16 19 4 0 12 5 22 11 22 6 0 10 -12 9 -27 -1 -16
-1 -37 0 -48 1 -18 2 -18 11 3 26 67 -27 149 -112 172 -52 14 -92 2 -141 -45
-20 -19 -39 -35 -42 -35 -10 0 -6 91 4 111 8 14 6 25 -6 44 -18 28 -9 33 17 9
19 -17 39 -12 39 10 0 8 12 11 36 8 36 -4 37 -4 30 24 l-6 29 17 -22 c10 -12
26 -33 35 -45 15 -20 17 -21 18 -4 0 10 -15 33 -34 52 -39 39 -80 44 -133 18z"/>
<path d="M1279 4480 c-30 -9 -91 -51 -84 -58 2 -2 20 5 40 17 42 25 52 26 52
7 0 -7 -7 -13 -16 -12 -9 1 -15 -5 -13 -12 1 -8 -2 -11 -8 -7 -5 3 -29 -6 -52
-20 -31 -19 -36 -25 -18 -21 14 3 33 6 43 6 9 0 26 9 37 20 11 11 20 17 20 13
0 -4 11 8 25 27 37 51 33 58 -26 40z"/>
<path d="M1574 4438 l-19 -23 23 19 c21 18 27 26 19 26 -2 0 -12 -10 -23 -22z"/>
<path d="M2307 4429 c7 -7 15 -10 18 -7 3 3 -2 9 -12 12 -14 6 -15 5 -6 -5z"/>
<path d="M4010 4436 c0 -2 8 -10 18 -17 15 -13 16 -12 3 4 -13 16 -21 21 -21
13z"/>
<path d="M2358 4423 c7 -3 16 -2 19 1 4 3 -2 6 -13 5 -11 0 -14 -3 -6 -6z"/>
<path d="M3550 4423 c-33 -6 -50 -21 -50 -45 0 -16 -5 -19 -28 -13 -25 5 -33
1 -55 -28 -23 -31 -25 -38 -15 -76 8 -31 17 -43 34 -47 18 -5 24 -13 24 -33 0
-17 11 -38 28 -53 25 -25 30 -26 70 -15 34 9 44 17 49 37 4 22 9 26 31 22 20
-2 35 4 56 27 28 29 28 31 15 73 -10 32 -20 44 -36 46 -19 3 -23 10 -23 36 0
24 -7 38 -30 54 -16 12 -33 21 -37 21 -4 -1 -19 -4 -33 -6z m10 -61 c0 -30 11
-33 32 -9 l19 22 -3 -34 c-3 -33 4 -43 45 -55 23 -7 12 -26 -15 -26 -21 0 -21
0 3 -26 l24 -27 -30 6 c-40 7 -65 -8 -65 -39 0 -14 -4 -22 -10 -19 -5 3 -10
15 -10 26 0 23 -18 26 -26 4 -9 -23 -27 -18 -21 6 8 29 -13 59 -40 59 -13 0
-23 5 -23 10 0 6 9 10 19 10 29 0 34 17 11 33 -25 17 -15 29 15 17 26 -10 55
13 55 43 0 9 5 17 10 17 6 0 10 -8 10 -18z"/>
<path d="M1640 4406 c0 -2 8 -10 18 -17 15 -13 16 -12 3 4 -13 16 -21 21 -21
13z"/>
<path d="M2308 4393 c18 -2 45 -2 60 0 15 2 0 4 -33 4 -33 0 -45 -2 -27 -4z"/>
<path d="M2408 4393 c7 -3 16 -2 19 1 4 3 -2 6 -13 5 -11 0 -14 -3 -6 -6z"/>
<path d="M2039 4308 c10 -28 22 -53 28 -55 9 -3 43 75 43 99 0 4 -20 8 -44 8
l-45 0 18 -52z"/>
<path d="M2160 4335 c0 -13 31 -15 220 -15 189 0 220 2 220 15 0 13 -31 15
-220 15 -189 0 -220 -2 -220 -15z m98 -2 c-10 -2 -28 -2 -40 0 -13 2 -5 4 17
4 22 1 32 -1 23 -4z m85 0 c-7 -2 -19 -2 -25 0 -7 3 -2 5 12 5 14 0 19 -2 13
-5z m64 1 c-3 -3 -12 -4 -19 -1 -8 3 -5 6 6 6 11 1 17 -2 13 -5z m106 -1 c-7
-2 -21 -2 -30 0 -10 3 -4 5 12 5 17 0 24 -2 18 -5z"/>
<path d="M4065 4339 c-4 -6 -5 -12 -2 -15 2 -3 7 2 10 11 7 17 1 20 -8 4z"/>
<path d="M1292 4320 c0 -14 2 -19 5 -12 2 6 2 18 0 25 -3 6 -5 1 -5 -13z"/>
<path d="M1085 4321 c-48 -12 -69 -26 -128 -91 -67 -72 -134 -165 -172 -238
-26 -49 -27 -56 -14 -83 l14 -30 33 24 c17 13 44 46 59 74 16 27 54 97 86 155
62 115 64 116 170 138 33 7 69 22 85 35 l27 24 -65 0 c-36 -1 -78 -4 -95 -8z"/>
<path d="M4966 4274 c75 -88 75 -97 -1 -24 l-68 65 43 -58 c36 -49 82 -87 104
-87 8 0 -21 90 -35 106 -7 9 -31 25 -53 36 l-40 21 50 -59z m34 2 c0 -3 -4 -8
-10 -11 -5 -3 -10 -1 -10 4 0 6 5 11 10 11 6 0 10 -2 10 -4z"/>
<path d="M2176 4282 c-19 -32 -61 -189 -77 -291 -13 -88 -2 -142 41 -193 l29
-33 -15 45 c-30 88 -14 269 36 416 11 31 20 59 20 61 0 7 -29 3 -34 -5z"/>
<path d="M2235 4160 c-7 -121 1 -337 12 -326 3 3 9 75 14 160 5 86 15 187 23
226 l13 70 -27 0 -28 0 -7 -130z"/>
<path d="M2340 4280 c0 -41 32 -455 36 -459 2 -2 4 7 4 20 0 68 21 416 26 432
4 14 -1 17 -30 17 -20 0 -36 -4 -36 -10z"/>
<path d="M2454 4243 c12 -87 26 -287 27 -373 1 -83 1 -84 15 -52 16 36 21 137
17 345 l-3 127 -31 0 -31 0 6 -47z"/>
<path d="M2567 4223 c59 -163 69 -322 28 -438 -6 -16 -3 -15 14 5 65 76 69
146 22 330 -38 149 -46 170 -70 170 -18 0 -17 -3 6 -67z"/>
<path d="M1392 4260 c0 -14 2 -19 5 -12 2 6 2 18 0 25 -3 6 -5 1 -5 -13z"/>
<path d="M2635 4261 c-2 -5 2 -14 10 -21 8 -7 15 -19 15 -26 0 -26 44 -34 83
-16 39 18 42 30 11 46 -10 6 -21 14 -24 17 -7 10 -89 9 -95 0z"/>
<path d="M3749 4195 c-35 -36 -77 -87 -92 -113 -24 -41 -28 -55 -25 -113 2
-41 10 -76 21 -92 l17 -27 263 0 c144 0 267 4 274 8 19 12 43 78 43 119 0 60
-43 137 -118 213 l-68 70 -125 0 -126 0 -64 -65z"/>
<path d="M1925 4239 c-4 -6 -5 -12 -2 -15 2 -3 7 2 10 11 7 17 1 20 -8 4z"/>
<path d="M3247 4236 c-12 -32 -8 -44 13 -39 24 6 25 13 7 37 -13 18 -14 18
-20 2z"/>
<path d="M1522 4220 c0 -14 2 -19 5 -12 2 6 2 18 0 25 -3 6 -5 1 -5 -13z"/>
<path d="M1075 4200 c-4 -6 -12 -10 -18 -9 -31 4 -38 -1 -25 -15 7 -7 17 -13
23 -13 32 0 45 -4 40 -13 -3 -5 -1 -10 4 -10 10 0 14 20 9 38 -2 4 -11 6 -22
4 -16 -2 -17 0 -6 13 7 8 10 15 7 15 -3 0 -9 -5 -12 -10z"/>
<path d="M2307 4160 c-6 -27 -25 -315 -27 -397 0 -8 14 -13 36 -13 l36 0 -7
53 c-4 28 -13 129 -19 222 -8 123 -14 160 -19 135z"/>
<path d="M2543 4020 c1 -159 -1 -179 -20 -222 -21 -47 -21 -48 -3 -48 13 0 28
15 42 43 20 37 23 55 22 157 -1 84 -7 133 -21 180 l-21 65 1 -175z"/>
<path d="M3253 4183 c-7 -2 -13 -10 -13 -17 0 -7 -9 -21 -20 -31 -27 -24 -17
-34 33 -32 65 4 148 57 88 57 -10 0 -24 7 -31 15 -12 15 -34 18 -57 8z"/>
<path d="M2670 4148 l0 -33 20 25 c13 18 15 27 7 32 -21 14 -27 8 -27 -24z"/>
<path d="M3383 4148 c12 -29 12 -41 2 -72 -9 -27 -10 -36 -1 -33 6 2 11 9 11
15 0 22 15 24 16 1 0 -13 3 -18 6 -12 6 16 -24 120 -38 128 -5 4 -4 -9 4 -27z"/>
<path d="M2770 4146 c0 -13 -7 -29 -15 -36 -8 -7 -15 -21 -15 -31 0 -11 -4
-19 -10 -19 -5 0 -10 -4 -10 -10 0 -5 9 -10 20 -10 16 0 20 -7 20 -36 0 -26
-4 -35 -13 -31 -28 10 -38 -7 -26 -42 8 -22 10 -70 6 -137 l-6 -104 60 0 60 0
-6 108 c-5 72 -3 117 5 137 8 20 8 31 1 33 -6 2 -11 11 -11 20 0 13 -3 12 -15
-4 -13 -18 -14 -16 -15 20 0 22 3 36 6 33 4 -3 16 -1 27 5 18 9 19 11 4 20
-10 5 -17 15 -17 22 0 8 -7 19 -15 26 -8 7 -15 23 -15 36 0 13 -4 24 -10 24
-5 0 -10 -11 -10 -24z m20 -141 c0 -19 -4 -35 -10 -35 -5 0 -10 16 -10 35 0
19 5 35 10 35 6 0 10 -16 10 -35z"/>
<path d="M4597 4164 c-3 -4 0 -23 7 -43 8 -20 21 -77 30 -127 17 -95 16 -153
-8 -291 -7 -39 -6 -43 13 -43 12 0 24 -1 29 -2 13 -5 30 104 31 200 1 50 -3
92 -8 92 -4 0 -11 22 -14 50 -6 48 -54 170 -67 170 -4 0 -9 -3 -13 -6z"/>
<path d="M5091 4148 c0 -16 -6 -28 -11 -28 -6 0 -16 -12 -23 -27 -6 -16 -16
-32 -22 -36 -7 -6 -6 -10 3 -14 18 -7 16 -73 -3 -73 -18 0 -19 -5 -3 -33 8
-15 11 -59 9 -134 l-3 -113 57 0 57 0 -4 127 c-2 94 0 127 10 130 17 6 15 23
-3 23 -19 0 -21 66 -3 72 9 3 8 9 -5 22 -9 10 -17 24 -17 31 0 8 -6 18 -14 22
-8 4 -16 19 -19 33 -4 25 -4 25 -6 -2z m39 -143 c0 -28 -3 -31 -35 -32 -33 -1
-35 1 -35 32 0 31 2 33 35 32 32 -1 35 -4 35 -32z"/>
<path d="M1121 4153 c5 -26 -3 -35 -26 -31 -14 3 -25 1 -25 -3 0 -8 5 -10 41
-13 15 -1 31 42 18 49 -5 4 -9 3 -8 -2z"/>
<path d="M3151 4129 c-13 -37 -15 -106 -3 -113 4 -2 6 13 4 35 -2 22 1 53 8
70 7 16 10 32 8 35 -3 3 -11 -9 -17 -27z"/>
<path d="M1025 4140 c3 -5 8 -10 11 -10 2 0 4 5 4 10 0 6 -5 10 -11 10 -5 0
-7 -4 -4 -10z"/>
<path d="M2428 4130 c-4 -8 -9 -78 -12 -155 -4 -77 -10 -159 -15 -182 -8 -43
-8 -43 20 -43 l29 0 -1 98 c-2 139 -14 300 -21 282z"/>
<path d="M1048 4112 c-5 -18 -2 -22 15 -22 13 0 17 3 11 8 -6 4 -13 14 -16 22
-3 10 -6 8 -10 -8z"/>
<path d="M2182 4069 c-22 -119 -10 -291 20 -273 7 4 8 2 4 -5 -4 -6 -2 -18 4
-26 23 -28 27 -15 13 38 -8 28 -18 115 -22 192 l-6 140 -13 -66z"/>
<path d="M1505 4100 c10 -11 20 -20 23 -20 3 0 -3 9 -13 20 -10 11 -20 20 -23
20 -3 0 3 -9 13 -20z"/>
<path d="M4949 4094 c-10 -13 -10 -17 2 -25 8 -5 17 -9 22 -9 4 0 7 -12 7 -27
0 -22 -2 -25 -10 -13 -7 10 -9 -19 -9 -90 1 -76 3 -97 9 -76 5 16 7 50 5 75
-4 38 -3 41 4 16 7 -24 9 -16 9 40 0 39 -3 79 -8 90 -5 11 -9 14 -9 7 -1 -7
-6 -10 -11 -7 -8 5 -7 11 1 21 6 8 9 14 6 14 -2 0 -10 -7 -18 -16z"/>
<path d="M1476 4077 c3 -10 9 -15 12 -12 3 3 0 11 -7 18 -10 9 -11 8 -5 -6z"/>
<path d="M1430 4076 c0 -3 9 -10 20 -16 11 -6 20 -8 20 -6 0 3 -9 10 -20 16
-11 6 -20 8 -20 6z"/>
<path d="M2946 4071 c-3 -4 -16 -6 -30 -4 -36 7 -39 -11 -7 -46 33 -35 69 -40
93 -12 8 10 22 21 29 23 20 7 0 28 -27 28 -13 0 -24 5 -24 10 0 12 -27 13 -34
1z"/>
<path d="M1013 4040 c-25 -15 -34 -29 -39 -59 -5 -30 -10 -38 -24 -34 -19 5
-50 -21 -50 -42 0 -7 -19 -29 -41 -48 l-42 -34 69 -107 c38 -58 75 -106 82
-106 25 0 130 60 151 86 12 15 21 39 21 54 0 15 7 33 16 41 29 24 46 71 51
143 6 83 -2 98 -65 116 -55 15 -93 12 -129 -10z m175 -114 c-8 -121 -50 -157
-118 -100 -17 15 -34 24 -37 20 -10 -9 20 -38 55 -53 26 -11 32 -19 32 -43 0
-28 -3 -30 -37 -30 -30 0 -45 8 -80 42 -45 44 -52 58 -30 58 7 0 29 19 48 42
19 22 45 55 59 71 27 33 77 67 99 67 11 0 13 -15 9 -74z"/>
<path d="M1580 4056 c0 -2 8 -10 18 -17 15 -13 16 -12 3 4 -13 16 -21 21 -21
13z"/>
<path d="M4922 4048 c-42 -52 -52 -145 -23 -216 l17 -43 12 98 c7 54 12 109
12 122 0 21 -2 22 -17 10 -17 -13 -17 -12 0 14 18 28 18 37 -1 15z m-8 -73
c-13 -20 -14 -33 -6 -65 5 -22 6 -40 2 -40 -5 0 -11 17 -15 38 -6 40 7 92 25
92 6 0 3 -11 -6 -25z"/>
<path d="M1358 4033 c7 -3 16 -2 19 1 4 3 -2 6 -13 5 -11 0 -14 -3 -6 -6z"/>
<path d="M3212 4014 c9 -9 21 -15 27 -13 6 2 -2 10 -17 17 -25 11 -25 11 -10
-4z"/>
<path d="M3342 4023 c-6 -2 -10 -8 -7 -12 2 -5 -8 -6 -23 -5 -15 2 -21 1 -14
-2 6 -3 12 -15 12 -25 0 -11 4 -18 9 -14 5 3 12 1 16 -5 4 -6 -11 -9 -42 -7
l-48 2 2 -42 c3 -45 -7 -51 -36 -24 -12 10 -12 17 -3 32 10 16 9 19 -8 19 -13
0 -20 7 -20 18 0 27 11 34 24 16 10 -13 16 -14 40 -2 l29 13 -34 8 c-53 12
-63 13 -64 2 0 -5 -4 -16 -8 -22 -5 -7 -5 -13 -1 -13 4 0 -1 -7 -12 -15 -11
-8 -14 -15 -6 -15 6 0 12 -12 13 -27 l1 -28 13 30 c16 33 20 20 6 -17 -10 -26
6 -118 20 -118 17 0 21 23 5 32 -27 15 -18 33 16 33 18 1 61 2 94 3 l62 2 9
38 c11 44 7 62 -15 62 -15 1 -15 2 -2 13 8 7 16 20 16 30 2 15 -1 16 -14 5
-13 -11 -15 -10 -9 5 3 9 2 17 -4 17 -6 0 -7 5 -4 10 7 11 6 11 -13 3z m-67
-83 c3 -6 -1 -7 -9 -4 -18 7 -21 14 -7 14 6 0 13 -4 16 -10z m76 -37 c-10 -18
-71 -28 -71 -11 0 5 -4 6 -10 3 -5 -3 -10 0 -10 7 0 9 17 14 51 16 45 2 49 0
40 -15z m28 -10 c0 -5 -4 -17 -9 -28 -8 -18 -9 -17 -9 8 -1 15 4 27 9 27 6 0
10 -3 9 -7z m-179 -33 c0 -5 -2 -10 -4 -10 -3 0 -8 5 -11 10 -3 6 -1 10 4 10
6 0 11 -4 11 -10z"/>
<path d="M1705 3990 c3 -5 8 -10 11 -10 2 0 4 5 4 10 0 6 -5 10 -11 10 -5 0
-7 -4 -4 -10z"/>
<path d="M3045 3990 c-18 -8 -18 -9 5 -9 14 0 32 4 40 9 12 8 12 10 -5 9 -11
0 -29 -4 -40 -9z"/>
<path d="M3445 3990 c-5 -7 -4 -11 1 -7 5 3 29 2 52 -3 27 -4 40 -4 34 2 -16
16 -79 21 -87 8z"/>
<path d="M3105 3980 c-3 -5 -2 -10 4 -10 5 0 13 5 16 10 3 6 2 10 -4 10 -5 0
-13 -4 -16 -10z"/>
<path d="M2931 3878 c1 -105 1 -104 27 10 l19 82 -23 0 c-24 0 -24 -2 -23 -92z"/>
<path d="M5202 3910 c-16 -46 -14 -132 7 -215 l17 -70 -4 125 c-2 69 -1 122 2
119 4 -4 13 -56 20 -115 12 -103 13 -107 26 -79 25 60 24 119 -3 177 -13 29
-31 62 -39 72 -14 18 -16 17 -26 -14z"/>
<path d="M3540 3906 c0 -15 -11 -34 -29 -48 -31 -25 -55 -60 -66 -95 -6 -22
-4 -22 102 -25 l108 -3 3 -47 3 -48 -105 0 -106 0 0 -240 c0 -233 1 -240 20
-240 18 0 20 7 20 59 0 55 2 61 30 81 23 16 34 19 49 11 41 -22 51 -41 51 -97
l0 -54 40 0 40 0 2 278 3 277 229 3 c177 2 231 -1 238 -10 4 -7 8 -133 8 -280
l0 -268 40 0 40 0 0 59 c0 55 2 61 30 81 27 19 31 20 58 6 36 -18 42 -33 42
-97 0 -42 3 -49 20 -49 19 0 20 7 20 240 l0 240 -105 0 -105 0 0 50 0 50 110
0 c61 0 110 1 110 3 0 20 -48 92 -75 113 -23 17 -35 35 -35 50 0 13 -4 24 -10
24 -5 0 -10 -11 -10 -25 0 -15 -11 -32 -29 -46 -15 -11 -38 -38 -50 -60 l-22
-39 -275 0 -274 0 -14 34 c-8 18 -30 46 -50 62 -22 18 -36 38 -36 52 0 12 -4
22 -10 22 -5 0 -10 -11 -10 -24z m54 -381 c25 -23 27 -30 24 -92 l-3 -68 -64
0 -65 0 3 70 c1 61 5 73 27 93 32 28 45 28 78 -3z m770 4 c25 -20 27 -25 24
-93 l-3 -71 -62 -3 -63 -3 0 75 c0 69 2 76 26 95 33 26 45 26 78 0z"/>
<path d="M833 3887 c-18 -12 -33 -26 -33 -30 0 -10 57 23 72 41 16 18 -3 13
-39 -11z"/>
<path d="M1308 3903 c6 -2 18 -2 25 0 6 3 1 5 -13 5 -14 0 -19 -2 -12 -5z"/>
<path d="M1368 3903 c6 -2 18 -2 25 0 6 3 1 5 -13 5 -14 0 -19 -2 -12 -5z"/>
<path d="M1888 3903 c12 -2 30 -2 40 0 9 3 -1 5 -23 4 -22 0 -30 -2 -17 -4z"/>
<path d="M3051 3868 c-8 -18 -19 -36 -25 -40 -15 -10 -6 -15 37 -21 46 -6 54
5 29 41 -11 15 -21 33 -23 40 -2 6 -10 -3 -18 -20z"/>
<path d="M4784 3854 l-22 -44 44 0 c24 0 44 3 44 8 0 4 -10 23 -23 44 l-22 36
-21 -44z"/>
<path d="M1930 3876 c-25 -7 -97 -46 -160 -87 -159 -104 -203 -129 -228 -129
-13 0 -23 -8 -27 -22 -18 -61 -19 -58 28 -58 50 0 75 16 218 144 50 45 90 71
124 82 28 9 70 28 95 42 38 22 42 26 25 33 -25 10 -22 10 -75 -5z"/>
<path d="M1440 3861 c0 -10 -7 -24 -15 -31 -25 -20 -19 -65 10 -78 14 -6 25
-16 25 -22 0 -5 7 -10 16 -10 12 0 15 7 12 30 -3 17 -1 30 4 30 4 0 8 9 8 20
0 11 -4 20 -10 20 -5 0 -10 8 -10 18 0 19 -18 42 -32 42 -4 0 -8 -8 -8 -19z"/>
<path d="M4478 3833 c-23 -6 -35 -74 -23 -129 6 -25 43 -38 62 -22 9 8 17 8
24 1 5 -5 21 -8 34 -6 26 5 43 49 26 66 -7 7 -7 14 0 23 5 7 7 23 4 37 -8 29
-53 46 -66 25 -7 -10 -11 -10 -21 0 -6 6 -14 11 -17 11 -4 -1 -14 -3 -23 -6z
m53 -33 c10 0 20 6 22 13 3 7 6 5 6 -5 1 -10 8 -18 17 -18 14 0 14 -3 3 -16
-10 -13 -10 -19 0 -36 11 -18 11 -20 -3 -15 -9 4 -16 1 -16 -6 0 -7 -14 -12
-34 -13 -24 0 -33 3 -29 13 4 9 0 11 -11 7 -9 -3 -16 -1 -16 5 0 6 5 11 10 11
6 0 10 7 10 15 0 8 -4 15 -10 15 -5 0 -10 5 -10 11 0 6 7 8 16 5 12 -5 14 -1
9 17 -6 18 -5 20 6 10 7 -7 21 -13 30 -13z"/>
<path d="M3361 3819 c-1 -19 -42 -33 -52 -18 -4 8 -9 8 -13 1 -3 -6 4 -14 16
-17 13 -4 32 -15 43 -23 11 -9 15 -10 8 -3 -9 10 -9 20 -2 33 6 11 8 24 5 31
-2 7 -5 5 -5 -4z"/>
<path d="M3670 3800 c0 -20 5 -20 267 -18 246 3 268 4 271 21 3 16 -15 17
-267 17 -265 0 -271 0 -271 -20z"/>
<path d="M4952 3795 c0 -16 2 -22 5 -12 2 9 2 23 0 30 -3 6 -5 -1 -5 -18z"/>
<path d="M1363 3798 c-32 -15 -29 -28 6 -28 24 0 28 3 24 20 -3 11 -6 20 -7
19 0 0 -11 -5 -23 -11z"/>
<path d="M1595 3784 c-16 -8 -22 -12 -13 -10 38 11 93 18 87 12 -3 -3 -30 -15
-60 -25 l-54 -20 42 0 c34 -1 49 5 75 29 l33 29 -40 0 c-22 0 -53 -7 -70 -15z"/>
<path d="M1955 3786 c-27 -15 -34 -26 -28 -43 3 -8 -2 -13 -16 -13 -29 0 -47
-45 -30 -77 7 -13 21 -23 31 -23 10 0 18 -6 18 -14 0 -16 17 -31 46 -40 22 -7
69 28 59 45 -4 5 5 13 19 18 13 6 27 19 30 29 9 27 -13 72 -36 72 -10 0 -18 7
-18 15 0 23 -51 45 -75 31z"/>
<path d="M3236 3791 c-3 -4 6 -6 19 -3 14 2 25 6 25 8 0 8 -39 4 -44 -5z"/>
<path d="M3091 3777 c-1 -14 -8 -17 -36 -15 -41 2 -52 -6 -35 -27 9 -11 11
-40 8 -100 l-4 -85 44 0 44 0 -7 79 c-5 54 -3 86 5 101 7 14 8 25 3 29 -6 3
-13 13 -16 21 -4 12 -6 11 -6 -3z"/>
<path d="M4764 3744 c3 -9 6 -56 6 -105 l0 -89 41 0 41 0 -3 88 c-1 48 1 95 5
105 7 15 2 17 -44 17 -43 0 -51 -3 -46 -16z"/>
<path d="M1192 3743 c-13 -3 -30 -19 -42 -43 -24 -48 -83 -98 -163 -140 -34
-18 -64 -35 -66 -37 -3 -2 8 -30 24 -63 l29 -60 -17 -77 c-9 -43 -40 -161 -68
-263 l-52 -184 44 -190 43 -190 19 94 c27 140 59 227 147 405 82 165 105 234
115 343 3 34 12 79 19 100 16 43 74 162 80 162 3 0 9 -24 16 -52 6 -29 31
-116 55 -194 50 -156 80 -284 90 -387 l7 -67 -63 -29 c-66 -30 -148 -55 -155
-48 -2 2 5 66 17 142 23 154 17 230 -23 296 l-21 34 -13 -64 c-8 -40 -47 -135
-103 -250 -99 -205 -123 -273 -146 -405 -19 -114 -19 -172 2 -268 l16 -78 99
0 98 0 0 38 c0 33 32 295 57 471 l8 55 90 31 c50 17 104 39 120 47 l31 16 -8
94 c-10 109 -33 208 -98 413 -27 83 -51 177 -55 210 -16 144 -29 158 -133 138z"/>
<path d="M1334 3713 c3 -10 8 -34 11 -53 6 -33 10 -37 52 -46 48 -11 46 -12
57 37 4 17 1 29 -7 32 -122 49 -119 48 -113 30z"/>
<path d="M685 3694 c-13 -21 -15 -32 -7 -49 8 -18 8 -25 -4 -29 -9 -3 -14 -20
-14 -44 0 -34 4 -41 30 -52 16 -7 37 -9 46 -6 9 4 24 0 34 -9 39 -35 111 13
97 66 -4 14 0 27 8 33 26 19 8 80 -26 95 -24 11 -32 11 -45 0 -13 -11 -18 -10
-25 4 -16 28 -73 22 -94 -9z m79 -19 c7 -18 37 -20 55 -2 11 10 12 8 6 -10 -5
-19 -3 -23 17 -23 20 -1 21 -2 7 -13 -20 -16 -31 -45 -19 -52 18 -11 10 -26
-10 -20 -16 5 -20 2 -20 -16 l0 -23 -20 22 c-23 24 -35 27 -45 12 -12 -20 -26
-10 -15 10 9 17 8 20 -12 20 -21 1 -22 2 -5 14 20 15 22 37 5 54 -17 17 -2 28
17 12 13 -10 15 -9 15 9 0 24 15 28 24 6z"/>
<path d="M2172 3708 c-16 -16 -15 -53 2 -67 9 -8 74 -11 211 -9 172 3 199 5
208 20 8 12 8 24 -1 42 l-12 26 -198 0 c-141 0 -201 -3 -210 -12z m402 -24 c3
-8 2 -12 -4 -9 -6 3 -10 10 -10 16 0 14 7 11 14 -7z"/>
<path d="M3470 3687 c0 -23 5 -34 15 -34 10 0 15 11 15 34 0 23 -5 33 -15 33
-10 0 -15 -10 -15 -33z"/>
<path d="M3530 3685 c0 -32 3 -36 23 -33 17 2 22 10 22 33 0 23 -5 31 -22 33
-20 3 -23 -1 -23 -33z"/>
<path d="M3600 3686 c0 -27 4 -34 18 -32 9 2 17 8 16 14 -1 7 -2 21 -2 32 -3
36 -32 23 -32 -14z"/>
<path d="M4240 3687 c0 -23 5 -34 15 -34 10 0 15 11 15 34 0 23 -5 33 -15 33
-10 0 -15 -10 -15 -33z"/>
<path d="M4300 3685 c0 -32 3 -36 23 -33 17 2 22 10 22 33 0 23 -5 31 -22 33
-20 3 -23 -1 -23 -33z"/>
<path d="M4370 3687 c0 -23 5 -34 15 -34 10 0 15 11 15 34 0 23 -5 33 -15 33
-10 0 -15 -10 -15 -33z"/>
<path d="M3933 3683 l-203 -3 0 -260 0 -260 25 0 25 0 0 153 c0 177 10 204 83
237 56 26 105 25 157 -3 70 -37 80 -66 80 -239 0 -141 1 -148 20 -148 19 0 20
7 20 265 0 146 -1 264 -2 263 -2 -2 -94 -4 -205 -5z"/>
<path d="M1476 3636 c-4 -21 -5 -40 -2 -43 7 -8 18 42 14 64 -3 11 -7 3 -12
-21z"/>
<path d="M2706 3643 c11 -22 13 -49 8 -120 l-7 -93 73 0 73 0 -5 94 c-3 60 -1
99 5 105 6 6 7 11 3 11 -5 0 -3 7 4 15 11 13 1 15 -78 15 l-91 0 15 -27z"/>
<path d="M5016 3653 c5 -10 9 -64 9 -120 l0 -103 70 0 70 0 0 103 c0 56 4 110
9 120 7 15 1 17 -79 17 -80 0 -86 -2 -79 -17z"/>
<path d="M3280 3400 c0 -207 2 -240 15 -240 12 0 15 13 15 58 0 37 6 66 16 81
l16 22 24 -22 c20 -19 24 -32 24 -81 0 -45 3 -58 15 -58 13 0 15 33 15 240 l0
240 -70 0 -70 0 0 -240z m95 126 c12 -17 15 -43 13 -92 l-3 -69 -37 -3 -38 -3
0 77 c0 58 4 82 17 96 21 24 29 23 48 -6z"/>
<path d="M4450 3400 c0 -233 1 -240 20 -240 18 0 20 7 20 63 0 50 4 68 19 81
18 16 20 16 40 -10 15 -20 21 -41 21 -80 0 -42 3 -54 15 -54 13 0 15 31 13
238 l-3 237 -72 3 -73 3 0 -241z m105 126 c12 -17 15 -43 13 -92 l-3 -69 -37
-3 -38 -3 0 77 c0 58 4 82 17 96 21 24 29 23 48 -6z"/>
<path d="M2126 3618 c4 -7 9 -23 10 -37 2 -13 8 -29 14 -35 8 -8 8 -4 1 17
-15 38 -14 42 7 26 9 -7 6 -1 -7 14 -26 28 -37 36 -25 15z"/>
<path d="M2101 3586 c-1 -26 2 -37 9 -30 6 6 6 21 1 39 -9 30 -9 30 -10 -9z"/>
<path d="M1703 3586 c-18 -8 -33 -19 -33 -24 0 -17 30 -35 67 -41 76 -13 67
-58 -36 -186 -87 -106 -113 -207 -57 -220 11 -3 131 -4 265 -3 220 3 245 5
255 21 8 12 8 22 0 35 -10 15 -35 18 -210 23 -109 3 -200 6 -201 7 -1 1 -7 11
-13 22 -14 26 17 54 84 76 86 28 126 53 143 88 31 66 -10 151 -92 187 -59 26
-133 32 -172 15z m67 -16 c0 -5 -9 -10 -20 -10 -11 0 -20 5 -20 10 0 6 9 10
20 10 11 0 20 -4 20 -10z m152 -48 c57 -53 55 -141 -4 -174 -32 -18 -140 -57
-136 -49 2 3 21 32 42 64 43 64 59 144 36 186 -11 21 -10 22 12 11 13 -7 35
-24 50 -38z"/>
<path d="M954 3574 c-18 -14 -18 -14 6 -3 31 14 36 19 24 19 -6 0 -19 -7 -30
-16z"/>
<path d="M2171 3554 c0 -11 3 -14 6 -6 3 7 2 16 -1 19 -3 4 -6 -2 -5 -13z"/>
<path d="M2597 3541 c-9 -16 -17 -44 -17 -61 0 -37 20 -110 30 -110 16 0 32
60 36 130 3 73 3 73 -7 25 -21 -104 -29 -114 -25 -32 3 42 4 77 2 77 -1 0 -9
-13 -19 -29z"/>
<path d="M1600 3525 c-19 -7 -53 -14 -75 -15 -22 -1 -32 -4 -22 -7 20 -5 22
-24 5 -41 -7 -7 -8 -12 -2 -12 6 0 21 11 34 25 12 13 45 32 71 40 47 16 62 26
37 24 -7 0 -29 -7 -48 -14z"/>
<path d="M2120 3526 c0 -8 4 -17 9 -20 5 -4 7 3 4 14 -6 23 -13 26 -13 6z"/>
<path d="M3015 3450 l0 -90 52 0 53 0 -2 73 c-2 39 1 80 6 90 7 15 2 17 -50
17 l-59 0 0 -90z"/>
<path d="M4754 3524 c3 -9 6 -49 6 -90 l0 -74 51 0 50 0 -2 73 c-1 39 2 80 6
90 6 15 0 17 -55 17 -53 0 -61 -2 -56 -16z"/>
<path d="M2161 3514 c0 -11 3 -14 6 -6 3 7 2 16 -1 19 -3 4 -6 -2 -5 -13z"/>
<path d="M2328 3505 c3 -16 0 -25 -7 -23 -6 2 -24 -20 -41 -49 -19 -33 -25
-50 -16 -49 19 3 45 26 57 50 10 20 10 21 -5 2 -14 -18 -16 -18 -16 -3 0 10 9
25 20 34 20 17 28 63 11 63 -4 0 -6 -11 -3 -25z"/>
<path d="M2503 3511 c-7 -11 -25 -27 -42 -37 -39 -23 -55 -55 -46 -91 l7 -28
9 25 c5 14 28 41 50 60 32 28 40 41 37 63 -3 26 -4 27 -15 8z"/>
<path d="M2290 3510 c0 -5 5 -10 10 -10 6 0 10 5 10 10 0 6 -4 10 -10 10 -5 0
-10 -4 -10 -10z"/>
<path d="M2260 3500 c0 -5 5 -10 10 -10 6 0 10 5 10 10 0 6 -4 10 -10 10 -5 0
-10 -4 -10 -10z"/>
<path d="M2216 3479 c-32 -26 -36 -64 -5 -56 16 4 19 2 14 -11 -3 -9 8 -1 24
18 17 19 30 39 31 44 0 6 -7 1 -16 -10 -15 -19 -15 -18 -9 3 8 31 -8 36 -39
12z m25 -2 c-6 -8 -7 -18 -3 -22 4 -5 1 -5 -7 0 -8 4 -17 2 -22 -6 -6 -9 -9
-10 -9 -2 0 6 10 19 22 27 28 20 34 20 19 3z"/>
<path d="M2010 3450 c0 -33 54 -101 62 -78 4 9 -5 28 -23 47 -29 33 -37 47
-19 36 5 -3 17 -2 26 3 14 8 11 10 -15 14 -28 4 -31 2 -31 -22z m55 -60 c3 -5
2 -10 -4 -10 -5 0 -13 5 -16 10 -3 6 -2 10 4 10 5 0 13 -4 16 -10z"/>
<path d="M656 3439 c-20 -34 -23 -115 -7 -194 7 -36 8 -32 15 50 12 126 25
141 26 26 0 -84 2 -92 16 -80 8 7 25 30 36 52 19 38 19 42 3 83 -16 44 -51 94
-64 94 -3 0 -15 -14 -25 -31z"/>
<path d="M1649 3448 c-44 -25 -69 -65 -69 -110 l0 -33 20 33 c11 18 18 37 15
42 -3 5 4 14 15 20 12 6 19 18 16 25 -3 9 0 12 10 8 9 -3 13 -12 8 -22 -3 -9
-7 -22 -7 -28 0 -7 -3 -13 -7 -13 -3 0 -17 -19 -30 -42 -25 -48 -19 -43 29 19
35 45 53 94 42 111 -4 7 -18 4 -42 -10z"/>
<path d="M2072 3447 c-9 -10 -1 -24 33 -57 25 -24 45 -40 45 -36 0 5 -8 15
-17 23 -17 14 -17 14 0 9 13 -4 16 -2 10 7 -4 6 -8 18 -9 25 -2 8 -6 17 -10
20 -4 4 -5 0 -2 -9 4 -9 2 -22 -3 -30 -6 -10 -9 -8 -9 10 0 16 -4 21 -15 18
-8 -4 -17 -2 -20 3 -6 9 8 14 28 11 5 -1 6 3 2 9 -8 14 -20 13 -33 -3z"/>
<path d="M1435 3411 c-8 -39 21 -149 37 -133 7 7 7 21 -2 46 -6 20 -10 42 -7
49 5 13 16 -12 52 -110 24 -69 35 -71 35 -9 -1 53 -28 112 -73 154 l-35 34 -7
-31z"/>
<path d="M853 3420 c-19 -8 -53 -56 -53 -75 0 -3 19 8 42 25 59 43 71 36 18
-11 -45 -40 -45 -40 -10 -23 76 36 109 95 53 93 -16 0 -38 -4 -50 -9z"/>
<path d="M2200 3390 c0 -18 -3 -21 -9 -11 -6 9 -8 5 -8 -13 0 -15 0 -26 1 -24
1 2 9 12 18 23 12 14 14 25 8 35 -8 12 -10 9 -10 -10z"/>
<path d="M2688 3405 c-7 -8 2 -45 11 -45 4 0 5 -45 3 -100 l-4 -100 80 0 80 0
4 108 c2 59 6 114 9 122 3 12 -12 15 -86 18 -50 1 -94 0 -97 -3z"/>
<path d="M5007 3388 c4 -13 7 -69 6 -125 l-3 -103 85 0 84 0 -2 103 c-1 56 2
112 6 125 8 22 8 22 -88 22 -96 0 -96 0 -88 -22z"/>
<path d="M2224 3338 c-16 -30 -16 -32 -1 -19 10 7 17 20 17 28 0 8 4 12 9 8 5
-3 12 -1 16 5 3 5 -1 10 -9 10 -9 0 -23 -15 -32 -32z"/>
<path d="M2095 3340 c10 -11 20 -18 23 -16 5 6 -23 36 -34 36 -4 0 1 -9 11
-20z"/>
<path d="M5233 3352 c-24 -4 -40 -47 -24 -66 7 -8 7 -16 0 -23 -14 -14 5 -59
29 -65 11 -3 25 -1 31 5 7 7 14 7 24 -1 17 -15 55 -4 60 17 3 9 5 40 6 69 1
48 -1 53 -26 63 -17 6 -30 6 -36 0 -6 -6 -17 -7 -26 -3 -9 5 -26 6 -38 4z m71
-23 c13 11 16 11 16 -2 0 -8 6 -17 13 -20 9 -3 8 -8 -3 -22 -11 -14 -12 -19
-2 -22 6 -3 12 -9 12 -15 0 -6 -7 -7 -16 -4 -11 4 -15 2 -11 -7 4 -10 -5 -13
-29 -13 -20 1 -34 6 -34 13 0 7 -7 10 -16 6 -14 -5 -14 -3 -3 15 10 17 10 23
0 36 -11 13 -11 16 3 16 9 0 16 7 16 15 0 12 3 13 19 3 15 -9 23 -9 35 1z"/>
<path d="M3004 3318 c3 -13 6 -53 6 -90 l0 -68 61 0 60 0 -7 69 c-4 44 -2 75
5 90 11 21 10 21 -60 21 -69 0 -71 -1 -65 -22z"/>
<path d="M4744 3324 c3 -9 6 -49 6 -90 l0 -74 60 0 61 0 -2 78 c-2 43 1 83 5
90 5 9 -11 12 -64 12 -62 0 -71 -2 -66 -16z"/>
<path d="M2304 3298 c-2 -3 -1 -14 3 -24 5 -14 2 -16 -15 -11 -12 4 -32 10
-43 14 -21 6 -22 4 -17 -51 5 -64 32 -101 79 -111 55 -12 111 -79 62 -74 -10
1 -39 1 -65 0 -52 -1 -68 -21 -18 -21 17 0 30 -4 30 -10 0 -6 52 -10 135 -10
83 0 135 4 135 10 0 6 14 10 30 10 17 0 30 5 30 10 0 6 -28 10 -65 10 -36 0
-65 3 -65 6 0 3 11 20 25 38 33 43 52 100 56 166 l4 54 -148 1 c-82 0 -151 -3
-153 -7z m-12 -65 c29 -31 51 -112 27 -98 -59 35 -69 47 -69 86 0 46 7 48 42
12z"/>
<path d="M773 3260 c-15 -9 -35 -25 -43 -35 -14 -16 -13 -17 15 -12 132 27
158 12 33 -19 -38 -9 -68 -17 -68 -19 0 -1 30 -1 68 2 106 6 174 51 114 74
-61 25 -90 27 -119 9z"/>
<path d="M1478 3264 c-3 -5 2 -25 13 -44 21 -40 23 -31 5 19 -7 19 -15 31 -18
25z"/>
<path d="M2670 3060 l0 -80 1270 0 1270 0 0 80 0 80 -1270 0 -1270 0 0 -80z
m1655 30 c0 -13 -49 -15 -385 -15 -359 0 -385 1 -388 18 -3 16 19 17 385 15
337 -3 388 -5 388 -18z m0 -60 c0 -13 -51 -15 -387 -18 -320 -2 -388 0 -388
11 0 8 3 17 7 20 4 4 178 6 387 5 331 -3 381 -5 381 -18z"/>
<path d="M659 3113 c-11 -13 -11 -15 -1 -9 9 5 15 1 19 -13 3 -12 9 -21 12
-21 4 0 6 -13 3 -30 -3 -24 -1 -30 14 -30 15 0 16 2 5 9 -10 7 -11 12 -1 27
11 18 11 18 6 1 -4 -12 -2 -17 6 -15 7 3 14 17 16 31 3 26 22 39 22 15 0 -8 6
-7 16 4 18 18 11 38 -14 38 -13 0 -13 -2 4 -16 18 -14 18 -15 -6 -8 -14 4 -34
13 -45 20 -26 18 -40 18 -56 -3z m42 -15 c11 -21 11 -22 -4 -9 -10 7 -17 17
-17 22 0 15 9 10 21 -13z"/>
<path d="M5260 3105 c0 -17 7 -39 15 -49 8 -11 15 -31 15 -45 1 -25 1 -25 15
-7 17 23 12 46 -21 96 l-24 35 0 -30z"/>
<path d="M797 3063 c-4 -3 -7 -15 -7 -25 0 -10 -4 -18 -10 -18 -5 0 -7 8 -4
18 4 10 3 13 -3 6 -4 -6 -17 -16 -28 -22 l-20 -11 20 -1 c17 0 17 -2 5 -10
-13 -8 -13 -10 1 -10 9 0 22 7 29 15 7 8 29 15 49 16 20 0 30 3 23 6 -6 2 -10
9 -6 14 3 5 2 9 -3 8 -4 -1 -15 -1 -23 0 -13 1 -13 2 0 11 13 8 13 10 -1 10
-9 0 -19 -3 -22 -7z"/>
<path d="M1632 3048 c-16 -16 -15 -43 2 -57 9 -8 88 -11 266 -9 228 3 254 5
264 21 8 12 8 22 0 35 -10 15 -36 17 -265 20 -190 2 -258 -1 -267 -10z"/>
<path d="M698 2963 c-8 -10 -15 -26 -15 -35 0 -17 1 -17 18 0 9 9 16 22 15 27
0 6 5 9 12 7 8 -1 11 2 7 8 -9 15 -20 12 -37 -7z"/>
<path d="M2180 2950 c-14 -4 -140 -8 -281 -9 -184 -1 -258 -4 -267 -13 -18
-18 -14 -56 7 -68 12 -6 112 -10 258 -10 193 1 246 4 278 17 22 8 59 18 83 20
38 5 48 1 89 -31 55 -43 86 -53 116 -37 12 6 15 10 7 10 -40 -3 -54 5 -103 56
-65 69 -118 87 -187 65z"/>
<path d="M5160 2944 c-19 -10 -21 -14 -7 -14 18 0 43 -47 31 -59 -3 -3 -14 5
-25 18 -10 13 -19 19 -19 13 0 -15 29 -42 46 -42 7 0 19 -9 26 -20 32 -51 99
-1 111 83 l6 37 -72 -1 c-41 -1 -83 -7 -97 -15z"/>
<path d="M3157 2936 c-3 -8 -16 -16 -28 -18 -24 -3 -39 -28 -18 -28 7 0 23 -9
35 -21 24 -22 74 -18 74 7 0 7 9 20 21 28 26 18 15 40 -17 33 -14 -2 -27 0
-30 4 -8 14 -31 10 -37 -5z"/>
<path d="M4036 2942 c-2 -4 -4 -31 -4 -60 -1 -46 2 -54 21 -61 12 -5 27 -5 32
0 6 4 17 4 24 0 32 -20 77 27 51 53 -6 6 -6 14 0 21 5 6 7 21 4 32 -5 19 -13
22 -65 22 -32 0 -61 -4 -63 -7z"/>
<path d="M4872 2930 c-62 -28 -138 -109 -174 -186 -34 -72 -47 -171 -34 -258
l7 -46 79 0 80 0 -40 62 c-48 74 -64 126 -58 195 7 78 49 140 121 177 31 16
60 26 64 23 8 -9 2 -14 -22 -19 -11 -1 -25 -7 -32 -13 -7 -5 -19 -16 -27 -22
-8 -7 -20 -13 -26 -13 -13 0 -12 -28 3 -64 l13 -29 17 26 c10 15 40 38 67 52
40 20 50 30 50 50 0 18 -4 23 -15 19 -9 -4 -15 0 -15 9 0 10 8 15 20 14 16 -1
20 -8 20 -34 0 -29 5 -35 49 -58 63 -31 83 -58 70 -93 -5 -13 -8 -26 -6 -29 4
-3 13 20 44 107 4 10 12 2 25 -25 15 -32 18 -56 15 -120 -4 -84 -26 -145 -71
-193 l-21 -24 30 4 c79 8 121 248 66 372 -22 50 -74 104 -118 122 -45 19 -130
16 -181 -6z m128 -40 c0 -5 -4 -10 -10 -10 -5 0 -10 5 -10 10 0 6 5 10 10 10
6 0 10 -4 10 -10z m30 0 c0 -5 -4 -10 -10 -10 -5 0 -10 5 -10 10 0 6 5 10 10
10 6 0 10 -4 10 -10z m68 -48 c13 -13 22 -26 19 -28 -3 -3 -18 8 -35 25 -16
17 -32 28 -35 24 -4 -3 -7 2 -7 12 0 19 10 14 58 -33z"/>
<path d="M3685 2928 c-86 -30 -98 -38 -85 -52 26 -32 103 -47 226 -44 l119 3
-130 18 c-71 10 -131 20 -134 22 -11 12 12 12 124 5 66 -5 121 -7 123 -6 1 2
-26 17 -62 35 -67 33 -124 39 -181 19z"/>
<path d="M3321 2917 c-49 -25 -65 -60 -69 -157 -7 -153 28 -210 129 -210 50 0
54 2 108 56 96 97 53 89 498 86 l393 -2 0 45 0 45 -390 0 c-439 0 -422 -3
-486 75 -21 26 -50 53 -65 61 -34 17 -86 18 -118 1z m102 -8 c27 -14 179 -169
175 -178 -2 -3 -42 -43 -90 -88 -82 -78 -89 -83 -131 -83 -84 0 -117 51 -117
182 0 88 23 146 64 164 38 16 71 17 99 3z"/>
<path d="M3330 2887 c-35 -18 -52 -76 -48 -169 4 -101 25 -132 92 -136 46 -3
46 -3 126 79 44 45 79 82 78 83 -2 1 -40 36 -84 79 -87 82 -111 91 -164 64z
m48 -149 c-3 -45 -6 -53 -23 -53 -16 0 -21 8 -23 39 -4 50 3 66 28 66 19 0 21
-5 18 -52z m62 -4 c0 -28 -3 -35 -17 -32 -31 6 -29 68 2 68 11 0 15 -10 15
-36z"/>
<path d="M4375 2916 c-22 -7 -53 -20 -70 -29 -29 -16 -26 -16 102 -17 72 0
134 -4 137 -9 6 -10 -94 -20 -209 -22 l-80 -1 95 -14 c150 -21 217 -16 265 20
19 14 16 16 -45 45 -79 36 -141 45 -195 27z"/>
<path d="M1588 2823 c-12 -11 -33 -16 -67 -15 l-50 1 2 -36 c2 -22 11 -42 25
-53 27 -22 28 -30 2 -30 -15 0 -20 -7 -20 -25 0 -24 -12 -40 -92 -126 -35 -38
-68 -51 -68 -27 0 6 -11 1 -25 -12 -21 -20 -23 -26 -12 -39 16 -19 47 -85 47
-99 0 -7 -18 -9 -44 -7 -31 3 -48 0 -56 -10 -19 -23 5 -45 48 -45 33 0 35 -2
21 -15 -9 -9 -25 -17 -37 -18 -28 -2 -27 -5 8 -46 l30 -35 35 17 c23 11 35 24
35 37 0 11 5 20 11 20 5 0 7 -5 3 -12 -5 -8 -2 -9 9 -5 11 4 17 1 17 -8 0 -8
-7 -15 -16 -15 -13 0 -14 -3 -4 -14 8 -10 8 -21 2 -32 -11 -19 -4 -103 10
-121 5 -6 6 -23 2 -37 -5 -20 0 -36 19 -64 15 -20 29 -57 33 -82 4 -25 15 -62
25 -82 11 -20 28 -62 39 -92 12 -30 27 -59 34 -65 16 -13 46 -4 46 13 0 7 16
27 35 46 29 28 35 41 35 76 0 24 4 46 10 49 5 3 8 29 6 58 -4 57 7 87 30 87 8
0 17 7 20 15 4 8 11 15 16 15 5 0 30 20 55 45 24 25 48 45 52 45 3 0 15 15 25
34 12 22 24 32 33 29 20 -8 55 27 49 49 -5 22 38 54 67 50 14 -3 18 1 13 15
-3 10 -8 35 -12 56 -3 20 -10 37 -15 37 -14 0 -11 17 7 34 14 15 14 17 0 22
-9 3 -16 12 -16 19 0 11 -86 31 -116 26 -6 -1 -17 6 -24 14 -7 8 -24 15 -39
15 -14 0 -42 9 -61 19 -19 11 -45 24 -56 30 -16 7 -20 16 -17 35 3 15 10 29
15 32 9 6 -26 44 -56 61 -7 4 -17 18 -20 31 -6 18 -4 22 14 22 20 0 20 2 6 28
-8 15 -22 44 -31 65 -9 20 -17 37 -18 37 -2 0 -10 -8 -19 -17z m-2 -294 c10
-17 -13 -36 -27 -22 -12 12 -4 33 11 33 5 0 12 -5 16 -11z"/>
<path d="M3170 2835 c0 -2 5 -15 11 -29 14 -30 29 -25 29 10 0 17 -5 24 -20
24 -11 0 -20 -2 -20 -5z"/>
<path d="M743 2763 c3 -50 15 -89 41 -143 19 -41 35 -71 36 -67 0 4 -11 48
-25 97 -42 151 -28 151 26 0 l34 -95 6 45 c7 48 2 93 -14 124 -14 27 -88 106
-100 106 -6 0 -8 -25 -4 -67z"/>
<path d="M4945 2810 c-4 -7 -3 -16 3 -22 14 -14 45 -2 40 15 -6 16 -34 21 -43
7z"/>
<path d="M2058 2803 c6 -2 18 -2 25 0 6 3 1 5 -13 5 -14 0 -19 -2 -12 -5z"/>
<path d="M1905 2790 c-12 -4 -27 -15 -34 -24 -13 -16 -12 -16 15 -2 16 8 40
19 54 25 21 8 22 10 5 10 -11 0 -29 -4 -40 -9z"/>
<path d="M1975 2780 c-4 -6 -12 -7 -18 -3 -7 3 -4 -3 6 -15 14 -15 17 -29 12
-51 -3 -17 -10 -30 -13 -30 -4 1 -16 1 -27 0 -16 -1 -14 -5 10 -15 35 -15 70
-61 55 -71 -6 -3 -10 -11 -10 -16 0 -6 5 -7 10 -4 6 3 10 1 10 -4 0 -6 -9 -11
-21 -11 -11 0 -17 -5 -14 -10 4 -6 12 -7 18 -4 8 5 8 2 -1 -7 -6 -7 -33 -16
-60 -20 l-47 -6 45 -1 c53 -2 76 13 91 58 10 28 9 34 -5 42 -9 5 -16 14 -16
19 0 6 6 7 13 3 7 -4 9 -3 4 2 -5 5 -14 9 -20 9 -5 0 -12 5 -14 11 -5 14 35
13 45 -1 9 -14 38 -12 35 2 -2 7 8 21 22 31 13 11 21 22 18 26 -3 3 -1 6 5 6
19 0 55 -41 58 -65 2 -22 -13 -34 -56 -48 -8 -3 -3 -6 12 -6 36 -1 58 23 58
64 0 29 -11 47 -30 51 -3 0 -13 4 -22 8 -22 10 -57 -10 -68 -40 -12 -29 -20
-30 -48 -4 -24 22 -30 46 -9 34 9 -6 9 -4 -1 8 -9 11 -10 18 -2 23 5 3 10 11
10 17 0 7 -4 7 -13 -1 -18 -14 -30 -2 -16 16 6 7 9 13 6 13 -3 0 -9 -5 -12
-10z m18 -93 c3 -8 -1 -14 -8 -14 -7 0 -11 6 -8 14 3 7 6 13 8 13 2 0 5 -6 8
-13z"/>
<path d="M2047 2777 c5 -9 73 -6 73 3 0 3 -18 6 -39 5 -21 0 -37 -3 -34 -8z"/>
<path d="M1318 2766 c-10 -7 -18 -21 -18 -30 0 -9 -7 -16 -15 -16 -9 0 -20
-11 -26 -24 -14 -30 3 -66 31 -66 11 0 20 -7 20 -15 0 -9 11 -21 25 -27 21 -9
28 -8 45 7 11 10 20 24 20 32 0 7 7 13 15 13 21 0 35 40 23 64 -6 10 -19 21
-29 23 -10 3 -19 11 -19 18 0 6 -11 17 -25 23 -31 14 -26 14 -47 -2z"/>
<path d="M2357 2761 c-3 -14 -11 -18 -26 -14 -13 3 -29 -1 -41 -12 -20 -18
-27 -46 -12 -44 23 4 43 -4 63 -26 15 -15 35 -25 54 -25 37 0 47 7 63 43 6 15
23 32 37 39 29 13 31 21 10 38 -9 8 -29 10 -50 7 -19 -3 -37 -1 -40 4 -11 17
-52 10 -58 -10z"/>
<path d="M4410 2735 c0 -25 5 -45 10 -45 14 0 12 -37 -2 -43 -10 -4 -10 -8 2
-16 21 -15 30 -4 23 29 -5 28 -4 30 27 30 31 0 32 -2 27 -30 -7 -32 1 -43 22
-31 9 6 10 11 2 15 -6 4 -11 16 -11 27 0 15 7 19 35 19 28 0 35 -4 35 -19 0
-11 -5 -23 -11 -27 -8 -4 -7 -9 2 -15 20 -12 29 -1 23 30 -4 20 -1 30 10 34
11 4 16 19 16 47 l0 40 -105 0 -105 0 0 -45z"/>
<path d="M4955 2750 c-3 -5 -1 -10 4 -10 6 0 11 5 11 10 0 6 -2 10 -4 10 -3 0
-8 -4 -11 -10z"/>
<path d="M4910 2736 c0 -2 7 -7 16 -10 8 -3 12 -2 9 4 -6 10 -25 14 -25 6z"/>
<path d="M4995 2730 c-3 -6 1 -7 9 -4 18 7 21 14 7 14 -6 0 -13 -4 -16 -10z"/>
<path d="M2740 2726 c0 -2 8 -10 18 -17 15 -13 16 -12 3 4 -13 16 -21 21 -21
13z"/>
<path d="M1822 2644 c-2 -66 21 -115 47 -100 9 6 8 13 -5 27 -9 10 -20 16 -25
13 -4 -2 -10 24 -12 58 l-3 63 -2 -61z"/>
<path d="M4810 2690 c0 -5 5 -10 11 -10 5 0 7 5 4 10 -3 6 -8 10 -11 10 -2 0
-4 -4 -4 -10z"/>
<path d="M4840 2697 c-1 -18 42 -87 66 -106 31 -25 81 -27 111 -6 22 15 63 75
63 91 0 5 -9 -7 -21 -26 -28 -47 -58 -70 -94 -70 -42 0 -71 23 -100 78 -13 26
-24 43 -25 39z"/>
<path d="M5100 2690 c0 -5 5 -10 10 -10 6 0 10 5 10 10 0 6 -4 10 -10 10 -5 0
-10 -4 -10 -10z"/>
<path d="M2780 2686 c0 -2 8 -10 18 -17 15 -13 16 -12 3 4 -13 16 -21 21 -21
13z"/>
<path d="M4100 2650 c0 -5 5 -10 11 -10 5 0 7 5 4 10 -3 6 -8 10 -11 10 -2 0
-4 -4 -4 -10z"/>
<path d="M4190 2650 c0 -5 5 -10 11 -10 5 0 7 5 4 10 -3 6 -8 10 -11 10 -2 0
-4 -4 -4 -10z"/>
<path d="M4280 2650 c0 -5 5 -10 11 -10 5 0 7 5 4 10 -3 6 -8 10 -11 10 -2 0
-4 -4 -4 -10z"/>
<path d="M4800 2634 c-12 -31 -12 -41 -1 -48 5 -4 7 3 4 15 -5 17 -2 20 13 17
11 -2 18 -11 17 -22 -1 -13 2 -15 9 -8 8 8 7 20 -2 41 -15 38 -27 39 -40 5z"/>
<path d="M5090 2635 c-12 -32 -13 -42 -1 -49 5 -4 7 3 4 15 -5 17 -2 20 13 17
11 -2 18 -11 17 -22 0 -10 3 -14 8 -9 11 11 -3 65 -19 71 -7 2 -16 -8 -22 -23z"/>
<path d="M2533 2595 c0 -27 2 -38 4 -22 2 15 2 37 0 50 -2 12 -4 0 -4 -28z"/>
<path d="M2397 2623 c-20 -5 -16 -30 11 -73 15 -23 16 -23 23 -5 4 11 8 35 8
53 1 32 -4 35 -42 25z"/>
<path d="M2708 2593 c12 -2 30 -2 40 0 9 3 -1 5 -23 4 -22 0 -30 -2 -17 -4z"/>
<path d="M2983 2593 c15 -2 39 -2 55 0 15 2 2 4 -28 4 -30 0 -43 -2 -27 -4z"/>
<path d="M3731 2553 c5 -25 18 -61 29 -80 l19 -33 -42 0 c-42 0 -42 0 -16 -14
38 -19 160 -20 195 0 l29 15 -30 -2 c-16 0 -39 -1 -49 0 -18 1 -18 2 -1 21 10
11 24 20 32 20 8 0 25 11 38 25 30 29 34 75 8 74 -11 0 -13 -3 -5 -6 28 -11
-5 -83 -38 -83 -11 0 -3 49 10 63 4 5 5 17 3 28 -5 17 -15 19 -98 19 l-92 0 8
-47z"/>
<path d="M2278 2583 c-14 -2 -41 -20 -60 -38 -18 -19 -41 -35 -52 -35 -14 0
-17 -5 -12 -25 6 -25 5 -25 -54 -25 -55 0 -60 2 -66 25 -8 34 -26 32 -22 -2 2
-21 12 -32 40 -45 26 -12 36 -23 32 -33 -5 -12 4 -15 50 -15 62 0 69 -9 30
-39 -18 -14 -24 -26 -19 -38 6 -17 7 -17 19 0 17 22 26 22 26 -1 0 -10 7 -27
15 -38 14 -18 14 -18 15 8 0 36 10 58 25 58 14 0 30 39 38 99 4 29 54 74 70
65 7 -4 9 -4 5 1 -4 4 -3 14 3 21 7 9 5 14 -10 19 -11 3 -23 15 -26 26 -4 10
-9 18 -13 18 -4 -1 -19 -4 -34 -6z"/>
<path d="M4143 2551 c-42 -11 -112 -47 -141 -74 -51 -47 -78 -135 -61 -201
l11 -39 31 39 c77 94 190 176 315 229 41 17 75 35 75 40 2 12 -185 16 -230 6z"/>
<path d="M1878 2533 c-11 -14 -11 -16 2 -8 8 5 30 8 49 6 42 -2 39 4 -6 12
-22 4 -35 2 -45 -10z"/>
<path d="M4401 2519 c-6 -18 -10 -33 -9 -34 2 -1 31 -17 66 -35 35 -19 90 -59
122 -90 l59 -57 -4 38 c-10 81 -56 143 -129 177 -79 38 -92 38 -105 1z"/>
<path d="M2770 2495 c-24 -25 -42 -45 -39 -45 3 0 25 20 49 45 24 25 42 45 39
45 -3 0 -25 -20 -49 -45z"/>
<path d="M2965 2500 c21 -22 41 -40 44 -40 3 0 -13 18 -34 40 -21 22 -41 40
-44 40 -3 0 13 -18 34 -40z"/>
<path d="M3004 2516 c11 -9 24 -16 30 -16 12 0 7 5 -24 19 -24 11 -24 11 -6
-3z"/>
<path d="M4271 2465 c-93 -44 -187 -111 -241 -172 -59 -67 -65 -83 -46 -122
l17 -32 47 38 c135 109 284 249 298 281 22 53 24 53 -75 7z"/>
<path d="M2790 2460 c-6 -11 -8 -20 -6 -20 3 0 10 9 16 20 6 11 8 20 6 20 -3
0 -10 -9 -16 -20z"/>
<path d="M2406 2448 c-8 -12 -12 -26 -9 -31 3 -6 1 -7 -6 -3 -18 12 -40 -12
-33 -37 11 -43 55 -73 102 -68 19 2 70 61 70 81 0 18 -72 80 -94 80 -8 0 -22
-10 -30 -22z"/>
<path d="M3449 2439 c-13 -13 -14 -20 -5 -29 9 -10 7 -10 -10 -2 -12 7 -26 7
-35 1 -7 -5 -24 -9 -36 -9 -13 0 -23 -4 -23 -9 0 -6 74 -9 175 -9 96 1 175 5
175 9 0 5 -8 9 -17 9 -25 0 -115 45 -106 53 3 4 -15 7 -40 7 -31 0 -47 -4 -47
-12 0 -9 -3 -9 -8 -2 -4 6 -13 4 -23 -7z m177 -35 c10 -8 12 -12 4 -8 -8 5
-33 11 -55 15 l-40 6 36 2 c19 0 44 -6 55 -15z m-201 -4 c3 -5 -1 -10 -10 -10
-9 0 -13 5 -10 10 3 6 8 10 10 10 2 0 7 -4 10 -10z"/>
<path d="M4442 2421 c46 -39 121 -135 144 -185 l18 -36 13 31 c8 20 10 37 3
48 -16 30 -124 125 -171 150 l-44 23 37 -31z"/>
<path d="M4360 2410 c-11 -28 -9 -33 53 -116 36 -48 79 -114 95 -146 l29 -59
22 36 c27 46 26 55 -3 113 -31 61 -92 134 -143 172 l-41 30 -12 -30z"/>
<path d="M4746 2404 c-10 -26 -7 -45 16 -90 27 -56 33 -51 12 10 -23 66 -9 70
19 6 18 -40 25 -49 30 -36 13 33 7 62 -15 82 -49 43 -55 46 -62 28z"/>
<path d="M4200 2274 c-52 -47 -114 -100 -137 -117 -23 -18 -43 -35 -43 -38 0
-4 10 -25 23 -47 l22 -40 65 75 c82 94 142 182 136 200 -3 7 -1 12 5 10 6 -1
15 8 20 21 4 12 7 22 6 21 -1 0 -45 -38 -97 -85z"/>
<path d="M3190 2265 l0 -85 -35 0 c-19 0 -35 -4 -35 -9 0 -5 47 -10 103 -10
86 -1 104 1 104 14 0 18 -37 21 -38 3 0 -7 -4 -3 -10 10 -5 13 -13 21 -18 18
-5 -3 -7 4 -3 16 3 14 1 19 -6 14 -6 -3 -17 1 -25 9 -12 11 -17 12 -20 2 -3
-6 -6 -2 -6 11 -1 16 5 22 19 22 11 0 20 4 20 8 0 11 55 14 142 9 30 -2 49 1
52 8 4 11 26 16 144 31 17 2 32 0 32 -6 0 -5 9 -10 19 -10 29 0 52 -11 45 -22
-4 -6 3 -5 15 1 11 7 21 14 21 17 0 3 -4 3 -9 -1 -5 -3 -12 -1 -16 5 -3 5 -3
10 2 11 4 0 19 3 33 5 33 6 51 -2 44 -21 -4 -9 -11 -12 -18 -8 -7 5 -5 1 4 -7
10 -9 19 -22 23 -30 3 -10 6 -7 6 8 1 12 6 22 13 22 9 0 9 3 0 12 -18 18 -15
27 8 23 11 -2 20 0 20 6 0 5 -124 9 -315 9 l-315 0 0 -85z m130 68 c0 -5 -11
-13 -25 -20 -14 -6 -25 -7 -25 -2 0 5 -17 10 -37 11 -32 1 -29 2 17 8 30 4 58
7 63 8 4 1 7 -1 7 -5z m60 -5 c0 -4 -7 -8 -16 -8 -9 0 -12 -5 -8 -12 5 -9 2
-9 -9 1 -24 19 -21 27 8 27 14 0 25 -4 25 -8z m50 2 c0 -5 -9 -10 -21 -10 -11
0 -17 5 -14 10 3 6 13 10 21 10 8 0 14 -4 14 -10z m37 4 c-3 -3 -12 -4 -19 -1
-8 3 -5 6 6 6 11 1 17 -2 13 -5z"/>
<path d="M3831 2275 c-2 -44 -6 -71 -8 -61 -4 15 -7 16 -14 5 -6 -10 -9 -6 -9
14 0 25 -2 27 -15 13 -8 -8 -15 -21 -15 -30 0 -17 -61 -33 -82 -20 -16 10 -70
6 -83 -7 -5 -5 -46 -9 -91 -9 -46 0 -85 -3 -87 -7 -3 -5 55 -9 128 -10 112 -1
133 1 128 13 -7 19 2 18 22 -3 16 -16 18 -16 27 0 11 20 29 23 26 5 -2 -10 17
-13 70 -12 39 0 72 -3 72 -7 0 -5 -174 -8 -387 -9 -213 0 -389 -3 -392 -5 -2
-3 174 -5 392 -5 390 0 397 0 397 20 0 16 -7 20 -35 20 l-34 0 -4 88 -3 87 -3
-80z"/>
<path d="M4316 2320 c-17 -29 -17 -31 5 -63 69 -97 186 -231 193 -219 16 27
-100 239 -161 294 -18 17 -20 16 -37 -12z"/>
<path d="M3596 2306 c3 -9 11 -16 16 -16 13 0 5 23 -10 28 -7 2 -10 -2 -6 -12z"/>
<path d="M4924 2300 c-62 -27 -84 -62 -84 -129 l0 -56 51 78 c29 42 56 77 61
77 5 0 -13 -43 -41 -95 -28 -53 -51 -98 -51 -101 0 -5 54 59 104 123 11 14 21
47 24 74 5 56 1 58 -64 29z"/>
<path d="M3630 2300 c0 -5 5 -10 10 -10 6 0 10 5 10 10 0 6 -4 10 -10 10 -5 0
-10 -4 -10 -10z"/>
<path d="M3477 2283 c18 -2 50 -2 70 0 21 2 7 4 -32 4 -38 0 -55 -2 -38 -4z"/>
<path d="M3790 2282 c0 -4 7 -16 15 -26 15 -19 15 -19 15 1 0 11 -7 23 -15 27
-8 3 -15 2 -15 -2z"/>
<path d="M3246 2263 c-6 -14 -5 -15 5 -6 7 7 10 15 7 18 -3 3 -9 -2 -12 -12z"/>
<path d="M3284 2265 c-10 -25 3 -42 30 -42 28 0 35 14 11 23 -8 4 -15 10 -15
15 0 4 7 5 17 2 11 -4 14 -3 9 5 -10 17 -46 15 -52 -3z m26 -27 c0 -5 -4 -8
-10 -8 -5 0 -10 10 -10 23 0 18 2 19 10 7 5 -8 10 -18 10 -22z"/>
<path d="M3694 2265 c-4 -8 -3 -22 0 -31 9 -22 50 -14 53 11 2 11 0 14 -3 7
-3 -6 -11 -9 -16 -6 -7 4 -8 2 -4 -4 4 -7 1 -12 -7 -12 -22 0 -15 34 8 42 18
6 18 6 -3 7 -12 1 -25 -6 -28 -14z"/>
<path d="M2470 2262 c-32 -6 -35 -10 -31 -37 14 -124 215 -160 286 -51 25 38
16 58 -31 72 -54 16 -179 24 -224 16z m199 -21 c36 -10 37 -28 1 -61 -60 -56
-162 -35 -188 40 l-11 30 87 -1 c48 -1 98 -4 111 -8z"/>
<path d="M3384 2250 c0 -11 6 -20 13 -20 7 0 10 6 7 14 -4 9 3 16 18 19 19 3
17 5 -7 6 -25 1 -31 -3 -31 -19z"/>
<path d="M3450 2262 c0 -11 23 -22 46 -22 9 0 12 5 9 10 -4 6 -11 8 -16 4 -5
-3 -16 0 -24 6 -9 7 -15 8 -15 2z"/>
<path d="M3553 2256 c-4 -5 -1 -12 5 -14 7 -2 12 -11 13 -20 0 -11 2 -12 6 -4
2 6 21 13 41 13 21 1 29 3 20 6 -10 2 -18 9 -18 15 0 5 7 8 15 4 8 -3 15 -1
15 4 0 13 -89 10 -97 -4z m57 -7 c0 -11 -37 -12 -43 -1 -3 4 6 8 19 8 13 1 24
-2 24 -7z"/>
<path d="M2353 2239 c-37 -11 -36 -9 -23 -43 6 -16 21 -28 42 -34 21 -6 32
-14 29 -23 -16 -54 -13 -78 14 -95 22 -15 32 -16 59 -6 43 16 46 15 46 -6 0
-51 75 -69 109 -26 19 24 23 25 53 15 28 -10 36 -9 58 8 20 15 25 27 23 55 -1
20 1 36 5 37 42 4 94 40 79 55 -3 4 -15 -4 -26 -17 -15 -18 -22 -21 -31 -12
-9 8 -7 16 8 31 20 20 20 20 -4 31 -21 9 -25 7 -40 -24 -23 -49 -65 -81 -123
-94 -98 -21 -200 37 -217 124 -7 37 -10 39 -61 24z m31 -26 c4 -9 2 -21 -4
-27 -13 -13 -46 17 -36 33 11 16 33 13 40 -6z m64 -142 c3 -19 0 -22 -13 -17
-9 3 -19 6 -21 6 -2 0 -4 9 -4 21 0 29 34 21 38 -10z m292 -10 c0 -21 -29 -36
-42 -23 -6 6 -3 16 7 26 22 21 35 20 35 -3z m-135 -51 c0 -8 -7 -16 -15 -17
-22 -4 -44 13 -35 26 10 17 50 9 50 -9z"/>
<path d="M4660 2236 c0 -33 29 -73 86 -115 l57 -43 -31 40 c-17 21 -38 45 -47
52 -18 15 -39 50 -30 50 4 0 31 -23 61 -51 57 -54 67 -50 40 16 -16 38 -37 52
-95 61 -34 5 -41 4 -41 -10z"/>
<path d="M2975 2220 c-3 -11 -12 -20 -20 -20 -15 0 -45 -27 -45 -41 0 -5 11
-9 23 -9 13 0 32 -9 42 -20 10 -11 20 -18 23 -15 3 3 -3 15 -14 27 -17 19 -17
21 -1 15 14 -5 16 -2 11 18 -4 16 -2 25 6 25 6 0 14 -9 17 -20 5 -17 8 -18 21
-8 13 11 15 9 10 -14 -3 -15 -1 -25 3 -22 5 3 9 14 9 24 0 11 10 24 21 31 20
10 20 12 5 27 -13 13 -20 14 -35 5 -15 -10 -22 -9 -31 2 -17 21 -38 19 -45 -5z"/>
<path d="M3444 2226 c16 -9 49 -15 75 -15 l46 2 -45 7 c-25 4 -58 10 -75 14
l-30 8 29 -16z"/>
<path d="M2128 2167 c-233 -77 -252 -101 -284 -357 -17 -137 -51 -219 -116
-275 -23 -19 -36 -35 -29 -35 8 0 11 -6 7 -15 -9 -24 23 -18 79 14 31 18 82
66 135 126 47 54 93 103 102 109 22 14 60 -20 89 -81 11 -23 26 -43 32 -43 26
0 91 49 118 90 78 115 73 240 -13 362 -18 24 1 37 19 13 51 -68 68 -119 68
-205 0 -92 -15 -134 -77 -212 -28 -37 -29 -37 -26 -160 l3 -123 75 0 75 0 12
55 c6 30 12 75 12 100 2 69 9 74 72 61 30 -7 95 -15 146 -18 105 -7 97 2 109
-120 l7 -73 57 0 c34 0 61 5 67 13 5 6 17 71 26 142 18 137 53 285 68 285 17
0 29 -51 29 -123 0 -83 13 -80 29 7 16 86 14 143 -9 231 -30 119 -111 232
-148 209 -10 -7 -17 -24 -17 -41 -1 -36 -20 -63 -46 -63 -11 0 -19 -5 -19 -10
0 -6 -16 -18 -35 -27 -19 -9 -37 -25 -41 -35 -7 -22 -49 -34 -67 -19 -8 6 -27
11 -43 11 -108 0 -139 5 -148 26 -5 11 -22 28 -39 37 -16 10 -31 26 -34 36 -3
11 -16 22 -29 25 -23 6 -42 45 -30 64 6 10 -15 72 -24 71 -3 0 -76 -24 -162
-52z m162 24 c0 -5 -7 -14 -15 -21 -18 -15 -42 1 -31 19 8 13 46 15 46 2z
m615 -81 c0 -22 -29 -18 -33 3 -3 14 1 18 15 15 10 -2 18 -10 18 -18z m-515
-102 c0 -7 -5 -20 -10 -28 -7 -12 -12 -12 -21 -3 -9 9 -9 16 1 28 15 18 30 20
30 3z m407 -41 c-7 -21 -32 -13 -35 11 -3 21 -1 22 18 12 12 -6 19 -17 17 -23z
m-817 -32 c0 -8 -7 -15 -15 -15 -8 0 -15 7 -15 15 0 8 7 15 15 15 8 0 15 -7
15 -15z m604 -11 c8 -20 -1 -34 -20 -34 -15 0 -17 9 -8 34 8 20 20 20 28 0z
m-544 -74 c30 -30 25 -44 -32 -88 -62 -46 -90 -62 -114 -62 -12 0 -3 15 30 50
26 28 54 66 62 85 16 40 26 43 54 15z m248 -422 c7 -7 20 -13 30 -13 9 0 17
-7 17 -15 0 -8 -6 -15 -12 -14 -7 1 -26 2 -43 3 -22 1 -30 6 -30 19 0 32 17
41 38 20z m539 -25 c2 -6 -12 -11 -37 -11 -37 -1 -48 6 -35 20 10 10 68 3 72
-9z"/>
<path d="M3363 2180 c1 -23 35 -28 55 -8 19 19 15 23 -22 25 -29 3 -35 0 -33
-17z"/>
<path d="M1225 2170 c-17 -8 -17 -9 7 -7 15 1 24 5 22 9 -3 4 -6 8 -7 7 -1 0
-11 -4 -22 -9z"/>
<path d="M1285 2150 c-4 -6 1 -7 10 -3 18 6 37 -15 28 -31 -4 -5 -10 -1 -14
10 -7 17 -8 17 -8 1 -1 -10 -5 -15 -11 -12 -5 3 -10 2 -10 -4 0 -23 33 -17 79
16 2 1 -2 9 -9 18 -14 17 -56 20 -65 5z m60 -10 c3 -5 1 -10 -4 -10 -6 0 -11
5 -11 10 0 6 2 10 4 10 3 0 8 -4 11 -10z"/>
<path d="M1240 2135 c0 -8 7 -15 15 -15 8 0 15 7 15 15 0 8 -7 15 -15 15 -8 0
-15 -7 -15 -15z"/>
<path d="M2332 2129 c4 -30 34 -37 41 -9 3 11 1 20 -3 20 -5 0 -16 3 -25 6
-13 5 -16 2 -13 -17z"/>
<path d="M1150 2130 c0 -5 12 -26 26 -47 15 -21 24 -31 22 -23 -3 8 -1 25 3
38 7 19 5 22 -14 23 -21 0 -21 1 -2 9 18 8 17 9 -7 9 -16 1 -28 -3 -28 -9z"/>
<path d="M1127 2123 c-13 -12 -7 -33 9 -33 13 0 14 3 5 13 -6 8 -8 17 -4 20 3
4 4 7 1 7 -2 0 -8 -3 -11 -7z"/>
<path d="M2803 2103 c-15 -5 -18 -43 -4 -43 5 0 14 7 21 15 14 17 3 35 -17 28z"/>
<path d="M3010 2100 c-12 -8 -12 -10 2 -15 19 -7 38 1 38 16 0 12 -21 11 -40
-1z"/>
<path d="M3099 2083 l-6 -33 426 2 426 3 -372 2 c-226 2 -373 7 -373 13 0 5
37 11 83 13 l82 3 -85 4 c-62 3 -35 6 105 10 l190 6 -230 0 c-126 1 -212 -2
-190 -6 46 -8 45 -11 -7 -13 -26 -1 -39 3 -41 13 -2 8 -5 0 -8 -17z m90 -19
c2 -2 -12 -4 -33 -4 -22 0 -35 4 -31 10 5 9 52 4 64 -6z"/>
<path d="M3648 2103 c39 -2 105 -2 145 0 39 1 7 3 -73 3 -80 0 -112 -2 -72 -3z"/>
<path d="M3893 2103 c15 -2 25 -8 22 -13 -3 -5 -1 -11 5 -15 5 -3 10 3 10 14
0 17 -6 21 -32 20 -31 -2 -31 -2 -5 -6z"/>
<path d="M4640 2106 c0 -2 7 -9 15 -16 12 -10 15 -10 15 4 0 9 -7 16 -15 16
-8 0 -15 -2 -15 -4z"/>
<path d="M4626 2091 c5 -11 3 -13 -10 -8 -14 5 -17 2 -14 -15 2 -16 -4 -24
-22 -29 -23 -6 -23 -7 -3 -8 12 -1 28 6 37 14 18 19 24 19 28 0 2 -9 8 -12 16
-6 11 6 8 15 -13 37 -15 16 -23 23 -19 15z"/>
<path d="M4685 2078 c1 -13 3 -35 4 -50 1 -32 31 -40 31 -9 0 11 8 22 18 25 9
3 5 4 -11 2 -24 -3 -27 0 -25 22 2 14 -2 27 -8 29 -7 2 -10 -6 -9 -19z"/>
<path d="M3428 2083 c12 -2 30 -2 40 0 9 3 -1 5 -23 4 -22 0 -30 -2 -17 -4z"/>
<path d="M3663 2083 c37 -2 97 -2 135 0 37 2 6 3 -68 3 -74 0 -105 -1 -67 -3z"/>
<path d="M1260 2062 l25 -5 -25 -7 -25 -8 28 -1 c19 -1 27 3 25 12 -3 6 -15
12 -29 13 l-24 1 25 -5z"/>
<path d="M1268 2013 c7 -3 16 -2 19 1 4 3 -2 6 -13 5 -11 0 -14 -3 -6 -6z"/>
<path d="M2473 2013 c-23 -9 -14 -33 12 -33 27 0 28 1 19 24 -6 17 -11 18 -31
9z"/>
<path d="M3040 2010 c0 -5 7 -6 17 -3 9 4 14 2 10 -3 -3 -6 -2 -16 4 -24 7
-12 9 -10 9 7 0 19 6 22 48 26 39 3 36 4 -20 5 -39 1 -68 -2 -68 -8z"/>
<path d="M3185 2010 c4 -6 -13 -10 -44 -10 -57 0 -68 -17 -18 -27 l32 -7 -30
-7 c-17 -4 20 -7 85 -8 78 0 110 2 100 9 -13 8 -12 10 3 10 9 0 17 -4 17 -10
0 -6 109 -10 306 -10 201 0 303 3 299 10 -3 6 1 10 10 10 9 0 13 5 10 10 -3 6
-2 10 4 10 6 0 8 7 5 15 -4 11 -20 15 -53 14 -34 -1 -40 -3 -22 -8 14 -4 25
-15 27 -29 l4 -22 -293 1 c-160 0 -286 3 -279 6 6 2 12 13 12 24 0 13 7 19 24
19 19 0 23 -4 19 -20 -5 -18 0 -20 36 -20 34 0 41 3 41 20 0 17 6 20 38 19 30
0 33 -2 17 -9 -12 -6 23 -7 90 -4 79 4 106 3 95 -5 -11 -8 9 -11 78 -11 l92 0
-20 20 c-19 19 -33 20 -356 20 -221 0 -333 -3 -329 -10z m408 -7 c-7 -2 -19
-2 -25 0 -7 3 -2 5 12 5 14 0 19 -2 13 -5z m-356 -39 c-3 -3 -12 -4 -19 -1 -8
3 -5 6 6 6 11 1 17 -2 13 -5z"/>
<path d="M4557 1991 c3 -23 2 -24 -6 -6 -8 18 -10 18 -10 2 -1 -10 6 -20 14
-23 8 -4 12 -10 9 -15 -3 -5 3 -9 13 -9 14 0 19 8 21 34 2 28 -1 34 -21 38
-20 4 -23 1 -20 -21z"/>
<path d="M4754 2006 c-17 -18 -23 -53 -9 -53 7 0 10 8 7 20 -4 15 -2 18 8 12
8 -5 11 -4 6 3 -3 5 -1 12 6 14 7 3 8 7 3 10 -6 3 -15 1 -21 -6z"/>
<path d="M1241 1968 c21 -42 22 -42 31 -19 11 31 2 55 -17 47 -8 -3 -15 -1
-15 4 0 6 -5 10 -10 10 -6 0 -1 -19 11 -42z m29 2 c0 -5 -4 -10 -10 -10 -5 0
-10 5 -10 10 0 6 5 10 10 10 6 0 10 -4 10 -10z"/>
<path d="M2645 1990 c-4 -7 -3 -16 3 -22 14 -14 45 -2 40 15 -6 16 -34 21 -43
7z"/>
<path d="M4062 1853 c3 -165 8 -180 72 -227 24 -19 42 -21 151 -21 137 0 156
7 203 75 20 30 22 44 22 178 l0 146 -29 -46 c-33 -52 -51 -67 -51 -43 0 10
-15 32 -34 51 -26 26 -42 34 -71 34 -33 0 -36 -2 -33 -26 3 -30 13 -37 78 -56
28 -8 45 -19 45 -28 0 -8 -20 -25 -45 -38 -36 -19 -56 -22 -98 -18 -48 4 -122
38 -122 55 0 11 38 28 88 41 38 10 42 14 42 42 0 30 0 31 -42 25 -45 -6 -98
-51 -98 -83 0 -23 -18 -7 -52 45 l-29 46 3 -152z"/>
<path d="M4624 1956 c-15 -12 -17 -17 -6 -27 6 -7 12 -18 12 -23 0 -6 -5 -4
-11 4 -9 12 -10 12 -7 1 6 -21 28 -26 28 -7 0 9 7 16 15 16 8 0 15 -7 15 -15
0 -17 19 -19 40 -4 12 9 12 10 -4 5 -15 -5 -17 -4 -7 8 8 10 9 16 1 21 -5 3
-10 3 -10 -1 0 -4 -8 3 -19 14 -22 26 -22 26 -47 8z"/>
<path d="M3102 1873 l1 -58 7 55 7 55 1 -50 c1 -28 -4 -75 -12 -105 -15 -58
-14 -63 10 -66 12 -2 14 7 13 42 -2 24 1 47 6 51 4 5 5 0 2 -9 -6 -16 1 -18
68 -18 69 0 75 2 75 21 0 11 5 17 10 14 6 -4 11 18 12 57 1 43 4 26 8 -52 l6
-115 2 118 2 117 -110 0 -110 0 2 -57z m78 43 c0 -3 -4 -8 -10 -11 -5 -3 -10
-1 -10 4 0 6 5 11 10 11 6 0 10 -2 10 -4z m67 -10 c-1 -6 4 -10 11 -8 9 1 11
-6 6 -25 -4 -16 -8 -30 -10 -32 -2 -2 1 -13 7 -24 8 -14 8 -18 0 -13 -6 4 -11
0 -11 -8 0 -9 -9 -16 -20 -16 -11 0 -20 4 -20 10 0 5 7 6 17 3 10 -4 14 -2 10
4 -4 6 -2 13 4 15 6 2 -8 3 -30 3 -21 0 -37 -3 -35 -7 3 -5 1 -8 -4 -8 -15 0
-13 82 3 100 17 18 75 23 72 6z m-100 -58 c-3 -7 -5 -2 -5 12 0 14 2 19 5 13
2 -7 2 -19 0 -25z m142 0 c0 -18 -3 -27 -6 -20 -2 6 -8 10 -12 7 -5 -2 -6 7
-3 20 6 36 22 31 21 -7z m-96 -65 c-7 -2 -21 -2 -30 0 -10 3 -4 5 12 5 17 0
24 -2 18 -5z"/>
<path d="M3190 1874 c-11 -12 -10 -18 3 -32 16 -15 18 -15 34 0 13 14 14 20 3
32 -7 9 -16 16 -20 16 -4 0 -13 -7 -20 -16z m36 -5 c3 -6 1 -16 -5 -22 -9 -9
-14 -8 -21 3 -9 15 -4 30 10 30 5 0 12 -5 16 -11z"/>
<path d="M3438 1923 c94 -3 102 -5 102 -23 0 -19 20 -26 59 -21 7 2 10 -2 6
-8 -3 -6 6 -16 21 -23 23 -11 28 -10 40 7 8 10 14 15 14 10 0 -5 -6 -16 -14
-24 -12 -14 -11 -21 5 -51 l19 -35 0 78 c0 55 -4 77 -12 77 -9 0 -8 4 2 10 10
6 -46 9 -165 8 -113 -1 -142 -3 -77 -5z m202 -64 c0 -6 -4 -7 -10 -4 -5 3 -10
11 -10 16 0 6 5 7 10 4 6 -3 10 -11 10 -16z"/>
<path d="M3710 1815 c0 -96 3 -115 15 -115 11 0 15 12 15 48 0 29 -3 42 -9 34
-5 -8 -9 16 -10 62 -2 67 0 76 16 75 11 0 13 -3 6 -6 -8 -3 -13 -25 -13 -57 0
-56 5 -67 24 -60 9 3 12 24 10 65 -1 34 2 57 7 53 5 -3 6 -10 3 -16 -4 -7 -2
-8 5 -4 6 4 9 10 7 14 -2 4 18 7 45 7 27 0 49 -4 49 -9 0 -4 -8 -5 -17 -1 -15
5 -16 4 -5 -6 6 -7 12 -23 12 -35 0 -13 4 -26 10 -29 6 -3 7 1 4 9 -4 11 0 16
14 16 15 0 21 8 24 35 l4 35 -108 0 -108 0 0 -115z m17 -92 c-3 -10 -5 -4 -5
12 0 17 2 24 5 18 2 -7 2 -21 0 -30z"/>
<path d="M3378 1903 c7 -3 16 -2 19 1 4 3 -2 6 -13 5 -11 0 -14 -3 -6 -6z"/>
<path d="M3448 1902 c-25 -10 -7 -33 20 -25 12 3 22 12 22 19 0 15 -14 17 -42
6z"/>
<path d="M3342 1831 c1 -66 2 -72 13 -50 7 13 10 28 7 34 -3 5 -9 28 -13 50
-5 31 -7 24 -7 -34z"/>
<path d="M3404 1875 c3 -8 2 -14 -2 -14 -19 3 -29 -2 -29 -15 0 -17 19 -15 41
3 20 17 20 27 0 35 -12 4 -15 2 -10 -9z"/>
<path d="M3804 1878 c-4 -7 -3 -8 5 -4 6 4 20 2 29 -6 15 -12 16 -11 3 5 -16
20 -27 22 -37 5z"/>
<path d="M3810 1836 c7 -7 13 -7 20 0 6 6 3 10 -10 10 -13 0 -16 -4 -10 -10z"/>
<path d="M3777 1806 c5 -24 3 -28 -11 -23 -9 4 -16 2 -16 -3 0 -6 33 -10 75
-10 l75 0 1 -37 c1 -22 3 -29 6 -16 2 12 12 24 21 26 15 4 14 5 -2 6 -13 1
-17 6 -13 21 6 22 -19 54 -34 45 -5 -4 -9 -13 -9 -21 0 -8 -10 -14 -25 -14
-22 0 -24 2 -13 14 8 8 15 10 19 4 3 -5 8 -1 11 10 5 17 3 18 -31 6 -30 -10
-37 -10 -47 4 -10 14 -11 12 -7 -12z"/>
<path d="M3610 1816 c0 -2 8 -10 18 -17 15 -13 16 -12 3 4 -13 16 -21 21 -21
13z"/>
<path d="M3293 1740 c0 -25 2 -35 4 -22 2 12 2 32 0 45 -2 12 -4 2 -4 -23z"/>
<path d="M3178 1743 c23 -5 29 -18 13 -27 -5 -4 -12 0 -14 6 -3 8 -6 6 -6 -4
-1 -12 6 -18 19 -18 11 0 20 4 20 9 0 5 8 12 18 14 16 4 16 5 0 6 -10 0 -18 6
-18 11 0 6 -12 9 -27 9 -24 -2 -25 -2 -5 -6z"/>
<path d="M3252 1725 c0 -16 2 -22 5 -12 2 9 2 23 0 30 -3 6 -5 -1 -5 -18z"/>
<path d="M3770 1723 c0 -13 4 -23 10 -23 5 0 6 8 3 17 -5 13 -3 15 13 9 10 -4
31 -10 47 -13 23 -5 27 -2 27 16 0 20 -5 22 -50 20 -45 -2 -50 -5 -50 -26z"/>
<path d="M3348 1713 c7 -3 16 -2 19 1 4 3 -2 6 -13 5 -11 0 -14 -3 -6 -6z"/>
<path d="M3645 1710 c3 -5 8 -10 11 -10 2 0 4 5 4 10 0 6 -5 10 -11 10 -5 0
-7 -4 -4 -10z"/>
<path d="M3675 1710 c3 -5 8 -10 11 -10 2 0 4 5 4 10 0 6 -5 10 -11 10 -5 0
-7 -4 -4 -10z"/>
<path d="M3100 1672 c17 -8 22 -83 5 -94 -6 -5 -3 -8 8 -8 14 0 17 9 17 55 0
51 -2 55 -22 54 -17 0 -19 -2 -8 -7z"/>
<path d="M3173 1666 c18 -14 18 -14 0 -19 -16 -4 -16 -5 0 -6 10 -1 17 -9 17
-21 0 -15 7 -20 25 -20 20 0 25 5 25 25 0 17 -6 25 -17 25 -19 0 -9 13 12 16
11 2 15 -9 15 -43 l0 -46 -39 7 c-23 3 -42 2 -46 -4 -4 -6 13 -10 44 -10 l51
0 0 55 0 55 -52 0 c-47 -1 -51 -2 -35 -14z"/>
<path d="M3292 1633 l1 -48 7 45 7 45 1 -47 c1 -29 -3 -48 -10 -51 -8 -3 -6
-6 5 -6 14 -1 17 8 17 54 0 42 -3 55 -15 55 -11 0 -15 -11 -13 -47z"/>
<path d="M3340 1625 c0 -46 3 -55 18 -54 10 0 12 3 5 6 -8 3 -12 22 -11 51 l1
47 7 -45 7 -45 1 48 c2 36 -2 47 -13 47 -12 0 -15 -13 -15 -55z"/>
<path d="M3660 1628 c0 -49 3 -58 18 -57 10 0 12 3 5 6 -7 2 -13 9 -13 14 0 6
5 7 10 4 6 -4 10 12 9 42 0 26 -3 42 -6 34 -5 -11 -7 -11 -14 0 -5 9 -9 -7 -9
-43z"/>
<path d="M3712 1628 c-2 -46 1 -58 13 -58 8 0 15 5 15 11 0 5 -4 8 -9 4 -6 -3
-12 17 -14 47 l-3 53 -2 -57z"/>
<path d="M3733 1640 c0 -25 2 -35 4 -22 2 12 2 32 0 45 -2 12 -4 2 -4 -23z"/>
<path d="M3770 1625 l0 -55 58 2 57 2 -50 3 -50 4 1 42 1 41 42 -1 c22 -1 41
3 41 8 0 5 -22 9 -50 9 l-50 0 0 -55z"/>
<path d="M3900 1625 c0 -52 1 -55 25 -53 14 1 25 3 25 4 0 1 -7 14 -14 30 -8
15 -12 32 -9 37 3 6 1 7 -5 3 -7 -4 -12 -1 -12 9 0 9 4 14 9 10 5 -3 12 -1 16
5 3 5 -3 10 -14 10 -19 0 -21 -6 -21 -55z m25 -35 c3 -5 1 -10 -4 -10 -6 0
-11 5 -11 10 0 6 2 10 4 10 3 0 8 -4 11 -10z"/>
<path d="M3802 1625 c-1 -17 3 -25 14 -25 11 0 13 6 9 20 -4 11 -2 20 4 20 6
0 11 -9 11 -21 0 -11 4 -18 9 -15 5 4 12 0 14 -6 3 -7 6 1 6 18 1 28 -2 31
-32 32 -28 1 -33 -2 -35 -23z"/>
<path d="M3085 1589 c-4 -6 -5 -12 -2 -15 2 -3 7 2 10 11 7 17 1 20 -8 4z"/>
<path d="M2440 1572 c-1 -14 -20 -148 -26 -174 -5 -25 -3 -28 19 -28 27 0 27
0 43 141 5 51 4 57 -15 62 -12 3 -21 2 -21 -1z"/>
<path d="M1972 1547 c-7 -7 -18 -30 -27 -49 -14 -35 -16 -36 -54 -31 -33 5
-44 1 -65 -20 -37 -37 -33 -51 19 -65 35 -9 51 -21 71 -52 42 -63 63 -47 24
18 -21 34 -9 44 21 16 16 -14 17 -12 17 35 1 28 4 56 8 62 12 19 33 -32 34
-81 1 -36 3 -41 10 -23 5 12 18 27 29 33 23 12 26 8 12 -18 -4 -9 -11 -29 -15
-44 -10 -43 12 -34 30 12 18 44 56 80 85 80 25 0 24 25 -1 50 -22 22 -69 26
-100 10 -16 -9 -22 -6 -34 17 -8 16 -23 36 -34 46 -16 14 -21 15 -30 4z"/>
<path d="M2665 1472 c8 -89 9 -92 36 -92 17 0 19 5 13 58 -8 88 -12 99 -35
105 -21 6 -21 4 -14 -71z"/>
<path d="M3120 1443 c0 -85 -3 -110 -17 -125 -14 -16 -14 -18 0 -18 8 0 18 -8
20 -17 3 -10 5 46 6 125 0 78 -1 142 -4 142 -3 0 -5 -48 -5 -107z"/>
<path d="M3175 1540 c13 -6 15 -9 5 -9 -12 -1 -15 -19 -15 -103 0 -92 2 -103
18 -102 9 1 17 -4 17 -12 0 -7 -8 -18 -17 -23 -17 -10 -17 -10 0 -11 25 0 21
-18 -5 -23 -13 -2 1 -5 30 -6 l52 -1 0 152 c0 83 -2 149 -5 147 -2 -3 -5 -69
-6 -147 -1 -132 -2 -142 -20 -142 -10 0 -19 5 -19 10 0 6 7 10 15 10 20 0 19
17 -2 29 -17 9 -17 10 0 16 14 6 17 20 17 77 0 38 -5 79 -11 90 -8 15 -8 19 0
14 6 -4 11 0 11 8 0 9 -6 16 -12 16 -9 0 -8 4 2 10 11 7 3 10 -30 9 -34 0 -40
-2 -25 -9z"/>
<path d="M3314 1400 c0 -85 2 -120 3 -77 2 42 2 112 0 155 -1 42 -3 7 -3 -78z"/>
<path d="M3340 1546 c0 -2 7 -6 15 -10 8 -3 15 -1 15 4 0 6 -7 10 -15 10 -8 0
-15 -2 -15 -4z"/>
<path d="M3664 1400 c0 -85 2 -120 3 -77 2 42 2 112 0 155 -1 42 -3 7 -3 -78z"/>
<path d="M3712 1403 c-2 -140 -1 -153 16 -153 12 0 13 3 5 8 -9 5 -13 52 -16
152 l-3 145 -2 -152z"/>
<path d="M3772 1403 l-2 -153 53 0 c33 0 47 3 38 9 -9 6 -10 11 -2 15 15 10
15 188 -1 204 -9 9 -9 15 0 24 7 7 12 20 12 30 0 14 -8 18 -38 18 -33 0 -38
-3 -40 -25 -2 -22 1 -24 17 -15 11 5 22 10 25 10 3 0 6 -58 6 -130 l0 -130
-30 0 -29 0 -4 148 -3 147 -2 -152z m81 130 c-7 -2 -19 -2 -25 0 -7 3 -2 5 12
5 14 0 19 -2 13 -5z"/>
<path d="M3902 1398 c1 -84 3 -131 5 -103 3 34 7 45 13 35 6 -9 8 24 5 87 -2
56 -7 108 -11 115 -6 9 -3 9 9 -1 15 -12 17 -12 11 3 -3 9 -12 16 -20 16 -11
0 -14 -28 -12 -152z"/>
<path d="M3344 1390 c0 -80 2 -112 3 -72 2 39 2 105 0 145 -1 39 -3 7 -3 -73z"/>
<path d="M3734 1400 c0 -74 1 -105 3 -67 2 37 2 97 0 135 -2 37 -3 6 -3 -68z"/>
<path d="M3294 1385 c0 -77 2 -107 3 -67 2 40 2 103 0 140 -2 37 -3 4 -3 -73z"/>
<path d="M3364 1400 c0 -69 1 -97 3 -62 2 34 2 90 0 125 -2 34 -3 6 -3 -63z"/>
<path d="M3684 1395 c0 -71 1 -99 3 -62 2 37 2 96 0 130 -2 34 -3 4 -3 -68z"/>
<path d="M4059 1493 c-13 -16 -12 -17 4 -4 16 13 21 21 13 21 -2 0 -10 -8 -17
-17z"/>
<path d="M3796 1484 c-3 -9 -6 -60 -6 -115 0 -91 2 -99 19 -99 14 0 18 5 14
20 -3 11 -9 17 -14 14 -5 -3 -9 0 -9 5 0 6 5 11 10 11 6 0 10 37 10 90 0 83
-9 112 -24 74z"/>
<path d="M2892 1334 c-9 -15 -13 -17 -23 -6 -16 15 -41 15 -73 1 -34 -16 -47
-86 -20 -106 14 -10 15 -16 6 -25 -15 -15 -15 -37 1 -71 16 -35 84 -49 104
-21 10 14 16 15 25 6 15 -15 37 -15 71 1 33 15 48 80 24 104 -12 12 -13 20 -5
33 11 17 6 53 -10 77 -4 7 -26 15 -49 19 -34 5 -43 3 -51 -12z m66 -58 c26 7
27 6 10 -13 -24 -26 -23 -47 5 -66 l22 -16 -28 0 c-25 -1 -27 -4 -21 -28 7
-27 6 -28 -13 -10 -26 23 -47 22 -66 -5 l-16 -23 0 28 c-1 25 -4 27 -28 21
-27 -7 -28 -6 -10 13 23 26 22 47 -5 66 l-23 16 28 0 c25 1 27 4 21 29 -7 26
-6 27 13 10 27 -24 50 -22 65 5 l13 22 3 -28 c3 -24 6 -26 30 -21z"/>
<path d="M2175 1299 c-4 -6 3 -17 14 -26 17 -12 21 -21 16 -44 -6 -27 -5 -28
23 -26 23 1 28 5 20 15 -8 8 -7 12 3 12 10 0 10 3 3 8 -7 4 -13 16 -16 27 -2
13 -12 20 -28 21 -14 0 -24 6 -22 12 3 15 -5 16 -13 1z"/>
<path d="M3923 1276 c0 -17 1 -24 4 -16 3 8 12 20 19 26 12 10 12 12 -3 16
-14 4 -18 -2 -20 -26z"/>
<path d="M2005 1273 c-54 -6 -62 -16 -29 -42 34 -27 39 -26 70 4 22 22 26 48
6 43 -4 -1 -25 -3 -47 -5z"/>
<path d="M2131 1258 c-1 -21 -6 -28 -20 -28 -28 0 -36 -19 -15 -35 17 -12 20
-11 29 8 5 12 15 26 22 30 7 4 13 16 13 25 0 14 -2 14 -9 3 -7 -11 -10 -10
-14 5 -3 13 -5 11 -6 -8z"/>
<path d="M4064 1251 c-2 -2 -4 -177 -4 -388 l0 -383 45 0 45 0 0 388 0 388
-41 0 c-22 -1 -43 -3 -45 -5z"/>
<path d="M2284 1190 c1 -28 -2 -50 -6 -50 -5 0 -8 5 -8 10 0 6 -6 10 -13 10
-9 0 -14 -13 -15 -36 -1 -20 -3 -38 -4 -39 -5 -5 -32 -7 -61 -6 -24 1 -27 4
-23 28 4 18 2 23 -5 16 -16 -16 -6 -47 16 -52 11 -2 23 -8 28 -15 5 -8 9 -8
15 0 4 6 15 13 25 17 10 4 17 17 17 31 0 18 6 25 23 28 15 2 21 9 19 22 -2 10
1 15 6 12 18 -11 22 25 6 50 -9 13 -17 24 -18 24 -2 0 -2 -23 -2 -50z m26 -1
c0 -6 -4 -7 -10 -4 -5 3 -10 11 -10 16 0 6 5 7 10 4 6 -3 10 -11 10 -16z"/>
<path d="M3100 1223 c14 -3 28 -10 32 -17 6 -8 8 -8 8 2 0 8 21 12 71 12 66 0
69 -1 54 -17 -14 -13 -18 -14 -25 -3 -7 11 -16 11 -49 1 -23 -6 -58 -9 -79 -6
-27 4 -32 3 -17 -4 11 -5 58 -11 105 -12 l85 -3 -105 -6 -105 -6 153 -2 152
-2 0 35 0 35 -152 -1 c-84 -1 -142 -4 -128 -6z m247 -18 c0 -8 -7 -15 -14 -15
-8 0 -12 4 -8 9 3 5 -3 12 -12 14 -12 3 -9 5 8 6 17 1 26 -4 26 -14z m20 -7
c-3 -8 -6 -5 -6 6 -1 11 2 17 5 13 3 -3 4 -12 1 -19z m-9 -25 c-10 -2 -28 -2
-40 0 -13 2 -5 4 17 4 22 1 32 -1 23 -4z"/>
<path d="M3650 1195 l0 -35 149 0 149 0 -2 24 c0 13 -4 22 -8 19 -5 -2 -8 0
-8 6 0 5 6 12 13 14 6 3 -57 6 -140 6 l-153 1 0 -35z m90 15 c0 -5 -7 -7 -15
-4 -8 4 -15 1 -15 -5 0 -6 -8 -12 -17 -12 -10 -1 -2 -5 17 -9 l35 -7 -42 -2
c-40 -1 -43 1 -43 24 0 23 4 25 40 25 22 0 40 -4 40 -10z m37 -5 c0 -8 -6 -15
-14 -15 -7 0 -13 7 -13 15 0 8 6 15 13 15 8 0 14 -7 14 -15z m73 -4 c0 -11 8
-22 18 -24 9 -3 -14 -4 -53 -4 -50 0 -57 2 -22 4 45 4 68 23 28 23 -11 0 -23
5 -26 10 -4 6 7 10 24 10 24 0 31 -4 31 -19z m74 3 c8 -22 8 -39 -1 -30 -5 4
-8 13 -8 19 0 7 -8 13 -19 15 -11 3 -16 0 -12 -7 4 -6 0 -11 -8 -11 -19 0 -21
16 -3 23 24 10 45 7 51 -9z"/>
<path d="M2065 1181 c-3 -5 -2 -12 3 -15 5 -3 9 1 9 9 0 17 -3 19 -12 6z"/>
<path d="M3430 1164 c0 -20 40 -114 49 -114 10 0 76 69 70 73 -15 13 -98 57
-107 57 -7 0 -12 -7 -12 -16z"/>
<path d="M2093 1159 c-13 -13 -6 -39 11 -39 6 0 17 4 25 9 12 8 12 12 -2 25
-19 19 -20 19 -34 5z"/>
<path d="M3531 1074 l-41 -35 6 -58 c5 -44 3 -64 -10 -83 -20 -30 -13 -38 31
-38 32 0 73 28 73 50 0 5 13 7 30 4 39 -8 60 10 60 52 0 23 5 34 15 34 22 0
47 45 43 77 -2 22 -8 27 -23 25 -11 -2 -35 -6 -52 -9 -18 -3 -46 -1 -62 5 -26
9 -34 7 -70 -24z"/>
<path d="M3185 1080 c-12 -19 10 -32 46 -28 48 4 46 32 -3 36 -20 2 -39 -2
-43 -8z"/>
<path d="M2945 1055 c-5 -2 -22 -6 -37 -9 -38 -9 -88 -54 -87 -79 0 -12 3 -16
6 -9 9 23 61 42 116 42 43 0 58 -5 75 -23 55 -58 -3 -152 -85 -140 -30 5 -33
3 -33 -21 0 -25 2 -26 34 -21 38 8 78 -9 115 -49 26 -28 32 -87 12 -124 -32
-59 -120 -72 -195 -28 -68 40 -94 94 -105 216 -7 70 -8 73 -19 47 -15 -34 -15
-136 -1 -197 28 -124 151 -202 269 -170 59 16 109 54 127 99 21 48 13 130 -15
166 -23 28 -28 45 -14 45 4 0 15 -14 24 -31 15 -25 23 -30 49 -27 27 3 34 9
46 43 7 22 25 51 40 63 74 66 179 -53 108 -123 -29 -30 -68 -32 -112 -5 -32
19 -33 19 -33 1 0 -30 47 -61 92 -61 80 0 128 49 128 133 0 94 -86 157 -174
126 -40 -14 -45 -19 -86 -109 -11 -24 -33 -22 -64 6 l-29 25 16 49 c18 55 10
106 -21 132 -32 28 -110 46 -147 33z"/>
<path d="M3146 1036 c10 -26 59 -46 111 -46 59 0 77 10 68 39 -7 23 -25 27
-42 10 -12 -12 -95 -8 -126 5 -13 7 -16 5 -11 -8z"/>
<path d="M5020 895 l0 -45 45 0 45 0 0 45 0 45 -45 0 -45 0 0 -45z"/>
<path d="M2390 921 c0 -6 4 -13 10 -16 6 -3 7 1 4 9 -7 18 -14 21 -14 7z"/>
<path d="M2594 824 c3 -8 2 -12 -4 -9 -6 3 -10 2 -10 -4 0 -5 -10 -11 -22 -13
-37 -5 -34 -34 4 -43 18 -4 37 -7 41 -6 5 1 5 -4 1 -10 -5 -9 0 -10 17 -6 13
4 27 7 30 7 4 0 10 11 13 24 3 14 13 32 22 40 8 9 12 20 9 26 -8 13 -38 13
-52 -1 -8 -8 -13 -8 -17 0 -11 17 -39 13 -32 -5z"/>
<path d="M4250 640 l0 -160 45 0 44 0 3 90 3 91 60 -90 c60 -90 60 -90 103
-91 l42 0 0 160 0 160 -40 0 -40 0 0 -85 c0 -47 -4 -85 -8 -85 -5 0 -34 38
-66 85 l-56 85 -45 0 -45 0 0 -160z"/>
<path d="M4650 640 l0 -163 99 5 c148 7 185 39 185 158 0 119 -39 152 -186
158 l-98 4 0 -162z m185 60 c18 -35 19 -78 3 -117 -6 -15 -11 -30 -10 -33 0
-3 -20 -3 -44 -1 l-44 3 0 89 0 89 40 0 c34 0 42 -4 55 -30z m-168 -152 c-2
-35 -3 -9 -3 57 0 66 1 94 3 63 2 -32 2 -86 0 -120z"/>
<path d="M5020 640 l0 -160 45 0 45 0 0 160 0 160 -45 0 -45 0 0 -160z"/>
<path d="M5297 793 c-6 -10 -117 -304 -117 -310 0 -2 21 -3 47 -1 41 3 48 6
53 28 5 23 11 25 64 28 56 3 58 3 69 -27 11 -29 15 -31 59 -31 26 0 48 1 48 3
0 1 -26 72 -59 157 l-58 155 -51 3 c-27 2 -52 -1 -55 -5z m74 -138 l16 -55
-39 0 c-31 0 -39 3 -35 14 3 8 11 33 17 55 6 23 14 41 18 41 4 0 14 -25 23
-55z"/>
<path d="M2636 717 c-17 -12 -17 -14 3 -37 l20 -25 1 38 c0 42 0 42 -24 24z"/>
</g>
</svg>
